M48
; DRILL file {KiCad 9.0.6} date 2026-07-02T02:17:47-0700
; FORMAT={-:-/ absolute / metric / decimal}
; #@! TF.CreationDate,2026-07-02T02:17:47-07:00
; #@! TF.GenerationSoftware,Kicad,Pcbnew,9.0.6
; #@! TF.FileFunction,Plated,1,2,PTH
FMAT,2
METRIC
; #@! TA.AperFunction,Plated,PTH,ViaDrill
T1C0.300
; #@! TA.AperFunction,Plated,PTH,ComponentDrill
T2C0.762
; #@! TA.AperFunction,Plated,PTH,ComponentDrill
T3C0.800
; #@! TA.AperFunction,Plated,PTH,ComponentDrill
T4C0.813
; #@! TA.AperFunction,Plated,PTH,ComponentDrill
T5C0.864
; #@! TA.AperFunction,Plated,PTH,ComponentDrill
T6C0.900
; #@! TA.AperFunction,Plated,PTH,ComponentDrill
T7C1.000
; #@! TA.AperFunction,Plated,PTH,ComponentDrill
T8C1.118
; #@! TA.AperFunction,Plated,PTH,ComponentDrill
T9C1.143
; #@! TA.AperFunction,Plated,PTH,ComponentDrill
T10C1.200
; #@! TA.AperFunction,Plated,PTH,ComponentDrill
T11C1.600
; #@! TA.AperFunction,Plated,PTH,ComponentDrill
T12C1.702
; #@! TA.AperFunction,Plated,PTH,ComponentDrill
T13C2.200
%
G90
G05
T1
X13.5Y-59.5
X27.21Y-59.0
X29.0Y-48.5
X29.5Y-37.5
X31.0Y-54.0
X32.0Y-37.5
X33.5Y-42.0
X35.5Y-48.5
X36.5Y-37.5
X38.5Y-53.5
X40.0Y-54.5
X40.5Y-35.0
X43.5Y-25.0
X44.5Y-47.5
X46.5Y-40.5
X51.0Y-22.5
X52.0Y-40.0
X56.0Y-39.0
X64.0Y-35.5
X64.0Y-36.5
T2
X15.38Y-43.75
X15.38Y-52.25
X17.92Y-43.75
X17.92Y-52.25
X20.46Y-43.75
X20.46Y-52.25
X23.0Y-43.75
X23.0Y-52.25
X25.54Y-43.75
X25.54Y-52.25
X28.08Y-43.75
X28.08Y-52.25
X30.62Y-43.75
X30.62Y-52.25
T3
X14.42Y-63.5
X24.58Y-63.5
X28.5Y-57.0
X32.5Y-14.42
X32.5Y-24.58
X37.5Y-49.5
X38.0Y-36.34
X38.0Y-46.5
X38.66Y-57.0
X47.66Y-49.5
X57.5Y-18.0
X57.597Y-43.5
X57.597Y-53.0
X62.5Y-18.0
X62.597Y-43.5
X62.597Y-53.0
T4
X17.5Y-55.0
X17.5Y-60.0
X24.0Y-24.5
X28.0Y-40.0
X29.0Y-24.5
X33.0Y-40.0
X38.0Y-18.5
X38.0Y-23.5
X56.43Y-25.19
X56.43Y-27.73
X56.43Y-30.27
X56.43Y-32.81
X64.05Y-25.19
X64.05Y-27.73
X64.05Y-30.27
X64.05Y-32.81
T5
X23.0Y-30.0
X23.0Y-35.0
T6
X26.0Y-16.0
X28.54Y-16.0
T7
X45.5Y-25.31
X48.0Y-25.31
X50.5Y-25.31
X70.0Y-25.31
X72.5Y-25.31
X75.0Y-25.31
T8
X15.0Y-23.758
X15.0Y-37.905
T9
X31.92Y-29.0
X34.46Y-29.0
X37.0Y-29.0
T10
X48.0Y-32.28
X48.0Y-53.28
X72.5Y-32.28
X72.5Y-53.28
T11
X42.92Y-38.0
X42.92Y-59.0
X67.42Y-38.0
X67.42Y-59.0
T12
X14.595Y-20.581
X17.895Y-14.991
X21.195Y-20.581
T13
X43.6Y-18.31
X52.4Y-18.31
X68.1Y-18.31
X76.9Y-18.31
M30
