%TF.GenerationSoftware,KiCad,Pcbnew,9.0.6*%
%TF.CreationDate,2026-07-02T02:17:42-07:00*%
%TF.ProjectId,DOOG DAV-1,444f4f47-2044-4415-962d-312e6b696361,rev?*%
%TF.SameCoordinates,Original*%
%TF.FileFunction,Legend,Top*%
%TF.FilePolarity,Positive*%
%FSLAX46Y46*%
G04 Gerber Fmt 4.6, Leading zero omitted, Abs format (unit mm)*
G04 Created by KiCad (PCBNEW 9.0.6) date 2026-07-02 02:17:42*
%MOMM*%
%LPD*%
G01*
G04 APERTURE LIST*
%ADD10C,0.100000*%
%ADD11C,0.150000*%
%ADD12C,0.120000*%
%ADD13C,0.152400*%
%ADD14C,0.508000*%
G04 APERTURE END LIST*
D10*
X12000000Y-42000000D02*
X24500000Y-42000000D01*
X56000000Y-57500000D02*
X64500000Y-57500000D01*
X64500000Y-66000000D01*
X56000000Y-66000000D01*
X56000000Y-57500000D01*
X13620000Y-49250001D02*
X13620000Y-46750001D01*
X63618034Y-59500000D02*
G75*
G02*
X61381966Y-59500000I-1118034J0D01*
G01*
X61381966Y-59500000D02*
G75*
G02*
X63618034Y-59500000I1118034J0D01*
G01*
X21500000Y-26666750D02*
X24500000Y-26666750D01*
X59000000Y-24000000D02*
X61500000Y-24000000D01*
X63000000Y-62000000D02*
X62970796Y-62009693D01*
X62941575Y-62019307D01*
X62912338Y-62028842D01*
X62883085Y-62038298D01*
X62853817Y-62047676D01*
X62824535Y-62056974D01*
X62795237Y-62066193D01*
X62765926Y-62075333D01*
X62736600Y-62084394D01*
X62707262Y-62093375D01*
X62677911Y-62102276D01*
X62648547Y-62111098D01*
X62619172Y-62119840D01*
X62589785Y-62128502D01*
X62560387Y-62137084D01*
X62530979Y-62145586D01*
X62501561Y-62154007D01*
X62472133Y-62162349D01*
X62442696Y-62170610D01*
X62413251Y-62178790D01*
X62383798Y-62186890D01*
X62354337Y-62194909D01*
X62324869Y-62202847D01*
X62295395Y-62210704D01*
X62265915Y-62218480D01*
X62236430Y-62226175D01*
X62206940Y-62233788D01*
X62177446Y-62241321D01*
X62147948Y-62248771D01*
X62118447Y-62256141D01*
X62088944Y-62263428D01*
X62059439Y-62270634D01*
X62029932Y-62277758D01*
X62000426Y-62284800D01*
X61970919Y-62291759D01*
X61941413Y-62298637D01*
X61911908Y-62305432D01*
X61882405Y-62312145D01*
X61852905Y-62318775D01*
X61823408Y-62325323D01*
X61793915Y-62331788D01*
X61764427Y-62338171D01*
X61734944Y-62344470D01*
X61705467Y-62350687D01*
X61675998Y-62356821D01*
X61646535Y-62362871D01*
X61617082Y-62368839D01*
X61587637Y-62374723D01*
X61558202Y-62380523D01*
X61528778Y-62386240D01*
X61499365Y-62391874D01*
X61469965Y-62397424D01*
X61440577Y-62402890D01*
X61411204Y-62408273D01*
X61381845Y-62413571D01*
X61352502Y-62418786D01*
X61323175Y-62423917D01*
X61293866Y-62428964D01*
X61264575Y-62433926D01*
X61235303Y-62438804D01*
X61206051Y-62443599D01*
X61176820Y-62448308D01*
X61147610Y-62452934D01*
X61118424Y-62457475D01*
X61089261Y-62461931D01*
X61060124Y-62466303D01*
X61031012Y-62470591D01*
X61001926Y-62474794D01*
X60972869Y-62478912D01*
X60943840Y-62482945D01*
X60914842Y-62486894D01*
X60885874Y-62490758D01*
X60856938Y-62494537D01*
X60828035Y-62498232D01*
X60799166Y-62501841D01*
X60770333Y-62505366D01*
X60741536Y-62508806D01*
X60712777Y-62512161D01*
X60684056Y-62515431D01*
X60655375Y-62518616D01*
X60626736Y-62521717D01*
X60598139Y-62524732D01*
X60569585Y-62527663D01*
X60541076Y-62530509D01*
X60512613Y-62533270D01*
X60484197Y-62535947D01*
X60455829Y-62538539D01*
X60427512Y-62541046D01*
X60399246Y-62543468D01*
X60371032Y-62545806D01*
X60342872Y-62548059D01*
X60314767Y-62550228D01*
X60286719Y-62552312D01*
X60258728Y-62554313D01*
X60230797Y-62556228D01*
X60202927Y-62558060D01*
X60175119Y-62559808D01*
X60147374Y-62561472D01*
X60119695Y-62563052D01*
X60092082Y-62564548D01*
X60064538Y-62565961D01*
X60037063Y-62567290D01*
X60009659Y-62568536D01*
X59982328Y-62569698D01*
X59955071Y-62570778D01*
X59927890Y-62571775D01*
X59900786Y-62572689D01*
X59873762Y-62573521D01*
X59846818Y-62574270D01*
X59819956Y-62574937D01*
X59793178Y-62575523D01*
X59766486Y-62576026D01*
X59739881Y-62576449D01*
X59726608Y-62576629D01*
X59713365Y-62576790D01*
X59700138Y-62576930D01*
X59686940Y-62577050D01*
X59673758Y-62577150D01*
X59660607Y-62577229D01*
X59647473Y-62577289D01*
X59634369Y-62577329D01*
X59621282Y-62577348D01*
X59608226Y-62577347D01*
X59595188Y-62577327D01*
X59582181Y-62577287D01*
X59569192Y-62577226D01*
X59556235Y-62577146D01*
X59543297Y-62577046D01*
X59530390Y-62576927D01*
X59517503Y-62576787D01*
X59504648Y-62576628D01*
X59491814Y-62576449D01*
X59479012Y-62576251D01*
X59466230Y-62576033D01*
X59453481Y-62575796D01*
X59440754Y-62575539D01*
X59428059Y-62575262D01*
X59415387Y-62574967D01*
X59402748Y-62574652D01*
X59390131Y-62574317D01*
X59377548Y-62573964D01*
X59364989Y-62573591D01*
X59352463Y-62573200D01*
X59339961Y-62572789D01*
X59327493Y-62572359D01*
X59315050Y-62571910D01*
X59302641Y-62571443D01*
X59290257Y-62570956D01*
X59277908Y-62570451D01*
X59265585Y-62569926D01*
X59253297Y-62569384D01*
X59241035Y-62568822D01*
X59228809Y-62568242D01*
X59216610Y-62567644D01*
X59204446Y-62567027D01*
X59192310Y-62566392D01*
X59180210Y-62565738D01*
X59168139Y-62565066D01*
X59156103Y-62564376D01*
X59144097Y-62563668D01*
X59132127Y-62562942D01*
X59120188Y-62562198D01*
X59108284Y-62561436D01*
X59096412Y-62560655D01*
X59084575Y-62559858D01*
X59072771Y-62559042D01*
X59061003Y-62558209D01*
X59049268Y-62557358D01*
X59037570Y-62556490D01*
X59025905Y-62555605D01*
X59014276Y-62554702D01*
X59002682Y-62553782D01*
X58991125Y-62552844D01*
X58979603Y-62551890D01*
X58968118Y-62550918D01*
X58956669Y-62549930D01*
X58945257Y-62548924D01*
X58933882Y-62547902D01*
X58922544Y-62546863D01*
X58911243Y-62545808D01*
X58899980Y-62544736D01*
X58888755Y-62543647D01*
X58877568Y-62542543D01*
X58866420Y-62541421D01*
X58855310Y-62540284D01*
X58844239Y-62539131D01*
X58833207Y-62537961D01*
X58822214Y-62536776D01*
X58811260Y-62535575D01*
X58800347Y-62534358D01*
X58789473Y-62533125D01*
X58778640Y-62531877D01*
X58767846Y-62530614D01*
X58757095Y-62529335D01*
X58746382Y-62528041D01*
X58735713Y-62526731D01*
X58725082Y-62525407D01*
X58714496Y-62524068D01*
X58703948Y-62522713D01*
X58693445Y-62521345D01*
X58682982Y-62519961D01*
X58672564Y-62518563D01*
X58662185Y-62517150D01*
X58651852Y-62515724D01*
X58641559Y-62514282D01*
X58631313Y-62512827D01*
X58621106Y-62511358D01*
X58610947Y-62509875D01*
X58600827Y-62508377D01*
X58590756Y-62506867D01*
X58580725Y-62505343D01*
X58570742Y-62503805D01*
X58560800Y-62502254D01*
X58550907Y-62500690D01*
X58541054Y-62499112D01*
X58531251Y-62497522D01*
X58521488Y-62495918D01*
X58511777Y-62494303D01*
X58502105Y-62492674D01*
X58492485Y-62491033D01*
X58482905Y-62489379D01*
X58473378Y-62487713D01*
X58463891Y-62486035D01*
X58454456Y-62484345D01*
X58445062Y-62482643D01*
X58435722Y-62480929D01*
X58426422Y-62479203D01*
X58417176Y-62477467D01*
X58407970Y-62475718D01*
X58398819Y-62473958D01*
X58389709Y-62472187D01*
X58380654Y-62470405D01*
X58371639Y-62468612D01*
X58362681Y-62466809D01*
X58353762Y-62464994D01*
X58344901Y-62463169D01*
X58336079Y-62461333D01*
X58327315Y-62459489D01*
X58318591Y-62457632D01*
X58309925Y-62455767D01*
X58301299Y-62453891D01*
X58292731Y-62452006D01*
X58284204Y-62450110D01*
X58275735Y-62448207D01*
X58267307Y-62446292D01*
X58258937Y-62444370D01*
X58250608Y-62442437D01*
X58242338Y-62440497D01*
X58234110Y-62438546D01*
X58225940Y-62436589D01*
X58217811Y-62434621D01*
X58209742Y-62432647D01*
X58201714Y-62430662D01*
X58193746Y-62428671D01*
X58185819Y-62426670D01*
X58177952Y-62424664D01*
X58170127Y-62422648D01*
X58162362Y-62420626D01*
X58154637Y-62418594D01*
X58146974Y-62416558D01*
X58139351Y-62414512D01*
X58131790Y-62412462D01*
X58124270Y-62410402D01*
X58116811Y-62408338D01*
X58109392Y-62406265D01*
X58102036Y-62404188D01*
X58094720Y-62402102D01*
X58087466Y-62400013D01*
X58080253Y-62397914D01*
X58073102Y-62395813D01*
X58065991Y-62393703D01*
X58058942Y-62391591D01*
X58051934Y-62389470D01*
X58044989Y-62387346D01*
X58038084Y-62385215D01*
X58031241Y-62383081D01*
X58024438Y-62380939D01*
X58017699Y-62378796D01*
X58010999Y-62376645D01*
X58004362Y-62374493D01*
X57997765Y-62372333D01*
X57991231Y-62370172D01*
X57984736Y-62368003D01*
X57978305Y-62365835D01*
X57971913Y-62363658D01*
X57965584Y-62361482D01*
X57959294Y-62359298D01*
X57953068Y-62357115D01*
X57946880Y-62354925D01*
X57940756Y-62352735D01*
X57934670Y-62350538D01*
X57928648Y-62348343D01*
X57922664Y-62346141D01*
X57916743Y-62343940D01*
X57910861Y-62341732D01*
X57905042Y-62339527D01*
X57899261Y-62337315D01*
X57893543Y-62335105D01*
X57887863Y-62332888D01*
X57882245Y-62330675D01*
X57876665Y-62328455D01*
X57871148Y-62326238D01*
X57865669Y-62324015D01*
X57860252Y-62321796D01*
X57854872Y-62319570D01*
X57849554Y-62317348D01*
X57844274Y-62315120D01*
X57839055Y-62312897D01*
X57833874Y-62310667D01*
X57828754Y-62308442D01*
X57823670Y-62306212D01*
X57818648Y-62303986D01*
X57813663Y-62301755D01*
X57808738Y-62299529D01*
X57803850Y-62297297D01*
X57799023Y-62295071D01*
X57794231Y-62292840D01*
X57789500Y-62290615D01*
X57784804Y-62288384D01*
X57780169Y-62286160D01*
X57775569Y-62283931D01*
X57771028Y-62281708D01*
X57766523Y-62279480D01*
X57762077Y-62277259D01*
X57757666Y-62275033D01*
X57753313Y-62272814D01*
X57748995Y-62270591D01*
X57744736Y-62268375D01*
X57740511Y-62266154D01*
X57736343Y-62263941D01*
X57732210Y-62261724D01*
X57728134Y-62259514D01*
X57724092Y-62257301D01*
X57720107Y-62255095D01*
X57716155Y-62252885D01*
X57712260Y-62250684D01*
X57708398Y-62248478D01*
X57704591Y-62246281D01*
X57700818Y-62244081D01*
X57697100Y-62241889D01*
X57693414Y-62239693D01*
X57689783Y-62237506D01*
X57686185Y-62235316D01*
X57682640Y-62233135D01*
X57679128Y-62230950D01*
X57675669Y-62228775D01*
X57672242Y-62226596D01*
X57668868Y-62224427D01*
X57665525Y-62222255D01*
X57662234Y-62220092D01*
X57658975Y-62217927D01*
X57655767Y-62215771D01*
X57652590Y-62213612D01*
X57649464Y-62211463D01*
X57646369Y-62209311D01*
X57643324Y-62207170D01*
X57640309Y-62205025D01*
X57637344Y-62202892D01*
X57634409Y-62200755D01*
X57631522Y-62198629D01*
X57628666Y-62196500D01*
X57625858Y-62194381D01*
X57623079Y-62192260D01*
X57620347Y-62190150D01*
X57617645Y-62188038D01*
X57614990Y-62185936D01*
X57612363Y-62183832D01*
X57609783Y-62181739D01*
X57607231Y-62179643D01*
X57604724Y-62177559D01*
X57602246Y-62175472D01*
X57599812Y-62173396D01*
X57597407Y-62171318D01*
X57595045Y-62169252D01*
X57592711Y-62167183D01*
X57590420Y-62165126D01*
X57588156Y-62163066D01*
X57585935Y-62161018D01*
X57583741Y-62158968D01*
X57581589Y-62156929D01*
X57579464Y-62154888D01*
X57577379Y-62152858D01*
X57575322Y-62150827D01*
X57573304Y-62148807D01*
X57571313Y-62146785D01*
X57569361Y-62144775D01*
X57567436Y-62142762D01*
X57565549Y-62140762D01*
X57563688Y-62138759D01*
X57561864Y-62136768D01*
X57560067Y-62134775D01*
X57558306Y-62132793D01*
X57556571Y-62130810D01*
X57554873Y-62128838D01*
X57553199Y-62126865D01*
X57551562Y-62124902D01*
X57549949Y-62122939D01*
X57548371Y-62120986D01*
X57546818Y-62119032D01*
X57545299Y-62117089D01*
X57543805Y-62115144D01*
X57542344Y-62113210D01*
X57540907Y-62111276D01*
X57539503Y-62109351D01*
X57538123Y-62107426D01*
X57536776Y-62105511D01*
X57535452Y-62103595D01*
X57534159Y-62101689D01*
X57532890Y-62099783D01*
X57531652Y-62097886D01*
X57530437Y-62095989D01*
X57529253Y-62094101D01*
X57528091Y-62092213D01*
X57526959Y-62090335D01*
X57525850Y-62088455D01*
X57524770Y-62086586D01*
X57523713Y-62084715D01*
X57522684Y-62082854D01*
X57521677Y-62080992D01*
X57520698Y-62079139D01*
X57519741Y-62077286D01*
X57518812Y-62075441D01*
X57517904Y-62073596D01*
X57517024Y-62071760D01*
X57516165Y-62069923D01*
X57515332Y-62068094D01*
X57514521Y-62066265D01*
X57513735Y-62064444D01*
X57512971Y-62062622D01*
X57512233Y-62060809D01*
X57511515Y-62058995D01*
X57510822Y-62057188D01*
X57510151Y-62055381D01*
X57509503Y-62053582D01*
X57508877Y-62051781D01*
X57508274Y-62049988D01*
X57507692Y-62048195D01*
X57507134Y-62046408D01*
X57506596Y-62044621D01*
X57506081Y-62042841D01*
X57505587Y-62041060D01*
X57505115Y-62039285D01*
X57504664Y-62037510D01*
X57504236Y-62035740D01*
X57503827Y-62033970D01*
X57503441Y-62032206D01*
X57503075Y-62030441D01*
X57502730Y-62028682D01*
X57502406Y-62026922D01*
X57502103Y-62025167D01*
X57501820Y-62023412D01*
X57501559Y-62021661D01*
X57501317Y-62019910D01*
X57501096Y-62018163D01*
X57500896Y-62016416D01*
X57500716Y-62014672D01*
X57500556Y-62012928D01*
X57500416Y-62011188D01*
X57500297Y-62009447D01*
X57500198Y-62007709D01*
X57500119Y-62005971D01*
X57500060Y-62004236D01*
X57500021Y-62002501D01*
X57500000Y-62000000D01*
X24500000Y-42000000D02*
X40500000Y-33540000D01*
X40500000Y-33540000D02*
X40500000Y-12000000D01*
X13500000Y-32500000D02*
X16500000Y-32500000D01*
X58207107Y-59500000D02*
G75*
G02*
X56792893Y-59500000I-707107J0D01*
G01*
X56792893Y-59500000D02*
G75*
G02*
X58207107Y-59500000I707107J0D01*
G01*
X21803884Y-41872419D02*
X21803884Y-40872419D01*
X21803884Y-40872419D02*
X22184836Y-40872419D01*
X22184836Y-40872419D02*
X22280074Y-40920038D01*
X22280074Y-40920038D02*
X22327693Y-40967657D01*
X22327693Y-40967657D02*
X22375312Y-41062895D01*
X22375312Y-41062895D02*
X22375312Y-41205752D01*
X22375312Y-41205752D02*
X22327693Y-41300990D01*
X22327693Y-41300990D02*
X22280074Y-41348609D01*
X22280074Y-41348609D02*
X22184836Y-41396228D01*
X22184836Y-41396228D02*
X21803884Y-41396228D01*
X22708646Y-40872419D02*
X22946741Y-41872419D01*
X22946741Y-41872419D02*
X23137217Y-41158133D01*
X23137217Y-41158133D02*
X23327693Y-41872419D01*
X23327693Y-41872419D02*
X23565789Y-40872419D01*
X24518169Y-41872419D02*
X24184836Y-41396228D01*
X23946741Y-41872419D02*
X23946741Y-40872419D01*
X23946741Y-40872419D02*
X24327693Y-40872419D01*
X24327693Y-40872419D02*
X24422931Y-40920038D01*
X24422931Y-40920038D02*
X24470550Y-40967657D01*
X24470550Y-40967657D02*
X24518169Y-41062895D01*
X24518169Y-41062895D02*
X24518169Y-41205752D01*
X24518169Y-41205752D02*
X24470550Y-41300990D01*
X24470550Y-41300990D02*
X24422931Y-41348609D01*
X24422931Y-41348609D02*
X24327693Y-41396228D01*
X24327693Y-41396228D02*
X23946741Y-41396228D01*
X15298609Y-49303259D02*
X15298609Y-48350878D01*
X15870038Y-49493735D02*
X13870038Y-48827069D01*
X13870038Y-48827069D02*
X15870038Y-48160402D01*
X13870038Y-47779449D02*
X15870038Y-47112783D01*
X15870038Y-47112783D02*
X13870038Y-46446116D01*
G36*
X56261467Y-65312374D02*
G01*
X56300652Y-65320780D01*
X56335406Y-65334714D01*
X56363267Y-65353114D01*
X56379259Y-65373041D01*
X56384621Y-65395238D01*
X56384621Y-65812234D01*
X56379259Y-65834431D01*
X56363267Y-65854358D01*
X56335406Y-65872757D01*
X56300652Y-65886692D01*
X56261467Y-65895098D01*
X56216582Y-65898000D01*
X56021188Y-65898000D01*
X56021188Y-65883931D01*
X56055992Y-65883931D01*
X56168039Y-65883931D01*
X56216521Y-65883931D01*
X56238064Y-65881457D01*
X56256149Y-65874039D01*
X56268466Y-65863125D01*
X56272575Y-65850152D01*
X56272575Y-65357319D01*
X56268466Y-65344346D01*
X56256149Y-65333432D01*
X56238064Y-65326014D01*
X56216521Y-65323540D01*
X56168039Y-65323540D01*
X56168039Y-65883931D01*
X56055992Y-65883931D01*
X56055992Y-65323540D01*
X56021188Y-65323540D01*
X56021188Y-65309472D01*
X56216582Y-65309472D01*
X56261467Y-65312374D01*
G37*
G36*
X56681569Y-65310025D02*
G01*
X56720754Y-65318420D01*
X56755504Y-65332333D01*
X56783364Y-65350687D01*
X56799356Y-65370577D01*
X56804719Y-65392747D01*
X56804719Y-65817070D01*
X56799357Y-65839241D01*
X56783366Y-65859144D01*
X56755504Y-65877520D01*
X56720758Y-65891412D01*
X56681572Y-65899795D01*
X56636680Y-65902689D01*
X56592184Y-65899808D01*
X56553062Y-65891436D01*
X56518100Y-65877520D01*
X56490049Y-65859130D01*
X56473968Y-65839229D01*
X56468579Y-65817070D01*
X56468579Y-65392747D01*
X56473969Y-65370589D01*
X56486654Y-65354901D01*
X56580626Y-65354901D01*
X56580626Y-65854915D01*
X56584718Y-65867859D01*
X56596990Y-65878765D01*
X56615121Y-65886156D01*
X56636680Y-65888621D01*
X56658175Y-65886156D01*
X56676247Y-65878765D01*
X56688566Y-65867856D01*
X56692672Y-65854915D01*
X56692672Y-65354901D01*
X56688564Y-65341966D01*
X56676247Y-65331087D01*
X56658170Y-65323668D01*
X56636680Y-65321196D01*
X56615126Y-65323668D01*
X56596990Y-65331087D01*
X56584720Y-65341963D01*
X56580626Y-65354901D01*
X56486654Y-65354901D01*
X56490051Y-65350700D01*
X56518100Y-65332333D01*
X56553066Y-65318395D01*
X56592187Y-65310012D01*
X56636680Y-65307127D01*
X56681569Y-65310025D01*
G37*
G36*
X57100689Y-65310025D02*
G01*
X57139874Y-65318420D01*
X57174624Y-65332333D01*
X57202485Y-65350687D01*
X57218477Y-65370577D01*
X57223839Y-65392747D01*
X57223839Y-65817070D01*
X57218478Y-65839241D01*
X57202487Y-65859144D01*
X57174624Y-65877520D01*
X57139878Y-65891412D01*
X57100693Y-65899795D01*
X57055800Y-65902689D01*
X57011304Y-65899808D01*
X56972183Y-65891436D01*
X56937220Y-65877520D01*
X56909170Y-65859130D01*
X56893088Y-65839229D01*
X56887700Y-65817070D01*
X56887700Y-65392747D01*
X56893090Y-65370589D01*
X56905775Y-65354901D01*
X56999747Y-65354901D01*
X56999747Y-65854915D01*
X57003839Y-65867859D01*
X57016111Y-65878765D01*
X57034242Y-65886156D01*
X57055800Y-65888621D01*
X57077296Y-65886156D01*
X57095368Y-65878765D01*
X57107687Y-65867856D01*
X57111793Y-65854915D01*
X57111793Y-65354901D01*
X57107685Y-65341966D01*
X57095368Y-65331087D01*
X57077291Y-65323668D01*
X57055800Y-65321196D01*
X57034247Y-65323668D01*
X57016111Y-65331087D01*
X57003841Y-65341963D01*
X56999747Y-65354901D01*
X56905775Y-65354901D01*
X56909172Y-65350700D01*
X56937220Y-65332333D01*
X56972187Y-65318395D01*
X57011308Y-65310012D01*
X57055800Y-65307127D01*
X57100689Y-65310025D01*
G37*
G36*
X57642960Y-65817289D02*
G01*
X57637602Y-65839386D01*
X57621616Y-65859228D01*
X57593745Y-65877556D01*
X57559003Y-65891427D01*
X57519818Y-65899798D01*
X57474921Y-65902689D01*
X57430425Y-65899808D01*
X57391304Y-65891436D01*
X57356341Y-65877520D01*
X57328290Y-65859130D01*
X57312209Y-65839229D01*
X57306821Y-65817070D01*
X57306821Y-65392747D01*
X57312210Y-65370589D01*
X57328292Y-65350700D01*
X57356341Y-65332333D01*
X57391308Y-65318395D01*
X57430429Y-65310012D01*
X57474921Y-65307127D01*
X57519806Y-65310029D01*
X57558991Y-65318435D01*
X57593745Y-65332370D01*
X57621606Y-65350769D01*
X57637598Y-65370696D01*
X57642960Y-65392893D01*
X57642960Y-65487672D01*
X57530914Y-65487672D01*
X57530914Y-65355084D01*
X57526799Y-65342048D01*
X57514488Y-65331124D01*
X57496407Y-65323676D01*
X57474921Y-65321196D01*
X57453367Y-65323668D01*
X57435232Y-65331087D01*
X57422962Y-65341963D01*
X57418867Y-65354901D01*
X57418867Y-65854915D01*
X57422960Y-65867859D01*
X57435232Y-65878765D01*
X57453363Y-65886156D01*
X57474921Y-65888621D01*
X57496416Y-65886156D01*
X57514488Y-65878765D01*
X57526805Y-65867851D01*
X57530914Y-65854878D01*
X57530914Y-65595529D01*
X57474921Y-65595529D01*
X57474921Y-65581461D01*
X57642960Y-65581461D01*
X57642960Y-65817289D01*
G37*
G36*
X58312796Y-65323540D02*
G01*
X58277991Y-65323540D01*
X58277991Y-65816667D01*
X58272626Y-65838939D01*
X58256629Y-65858927D01*
X58228777Y-65877373D01*
X58194014Y-65891351D01*
X58154830Y-65899780D01*
X58109952Y-65902689D01*
X58065520Y-65899790D01*
X58026527Y-65891371D01*
X57991739Y-65877373D01*
X57963924Y-65858929D01*
X57947945Y-65838941D01*
X57942585Y-65816667D01*
X57942585Y-65323540D01*
X57907048Y-65323540D01*
X57907048Y-65309472D01*
X58089436Y-65309472D01*
X58089436Y-65323540D01*
X58054570Y-65323540D01*
X58054570Y-65854805D01*
X58058669Y-65867812D01*
X58070935Y-65878729D01*
X58088968Y-65886168D01*
X58109891Y-65888621D01*
X58131434Y-65886147D01*
X58149520Y-65878729D01*
X58161834Y-65867809D01*
X58165945Y-65854805D01*
X58165945Y-65323540D01*
X58131079Y-65323540D01*
X58131079Y-65309472D01*
X58312796Y-65309472D01*
X58312796Y-65323540D01*
G37*
G36*
X58711767Y-65323540D02*
G01*
X58676901Y-65323540D01*
X58676901Y-65898000D01*
X58587386Y-65898000D01*
X58418004Y-65439971D01*
X58418004Y-65883931D01*
X58452869Y-65883931D01*
X58452869Y-65898000D01*
X58348333Y-65898000D01*
X58348333Y-65883931D01*
X58383138Y-65883931D01*
X58383138Y-65323540D01*
X58348333Y-65323540D01*
X58348333Y-65309472D01*
X58489750Y-65309472D01*
X58642035Y-65718225D01*
X58642035Y-65323540D01*
X58607231Y-65323540D01*
X58607231Y-65309472D01*
X58711767Y-65309472D01*
X58711767Y-65323540D01*
G37*
G36*
X58938180Y-65898000D02*
G01*
X58756524Y-65898000D01*
X58756524Y-65883931D01*
X58791329Y-65883931D01*
X58791329Y-65323540D01*
X58756524Y-65323540D01*
X58756524Y-65309472D01*
X58938180Y-65309472D01*
X58938180Y-65323540D01*
X58903375Y-65323540D01*
X58903375Y-65883931D01*
X58938180Y-65883931D01*
X58938180Y-65898000D01*
G37*
G36*
X59346798Y-65323540D02*
G01*
X59311933Y-65323540D01*
X59311933Y-65898000D01*
X59222418Y-65898000D01*
X59053035Y-65439971D01*
X59053035Y-65883931D01*
X59087901Y-65883931D01*
X59087901Y-65898000D01*
X58983365Y-65898000D01*
X58983365Y-65883931D01*
X59018169Y-65883931D01*
X59018169Y-65323540D01*
X58983365Y-65323540D01*
X58983365Y-65309472D01*
X59124781Y-65309472D01*
X59277067Y-65718225D01*
X59277067Y-65323540D01*
X59242262Y-65323540D01*
X59242262Y-65309472D01*
X59346798Y-65309472D01*
X59346798Y-65323540D01*
G37*
G36*
X59745403Y-65816923D02*
G01*
X59740041Y-65839120D01*
X59724048Y-65859047D01*
X59696188Y-65877446D01*
X59661433Y-65891381D01*
X59622249Y-65899787D01*
X59577363Y-65902689D01*
X59532867Y-65899808D01*
X59493746Y-65891436D01*
X59458784Y-65877520D01*
X59430733Y-65859130D01*
X59414651Y-65839229D01*
X59409263Y-65817070D01*
X59409263Y-65392747D01*
X59414653Y-65370589D01*
X59430735Y-65350700D01*
X59458784Y-65332333D01*
X59493750Y-65318395D01*
X59532871Y-65310012D01*
X59577363Y-65307127D01*
X59622249Y-65310029D01*
X59661433Y-65318435D01*
X59696188Y-65332370D01*
X59724048Y-65350769D01*
X59740041Y-65370696D01*
X59745403Y-65392893D01*
X59745403Y-65487672D01*
X59633356Y-65487672D01*
X59633356Y-65355084D01*
X59629242Y-65342048D01*
X59616931Y-65331124D01*
X59598849Y-65323676D01*
X59577363Y-65321196D01*
X59555810Y-65323668D01*
X59537674Y-65331087D01*
X59525404Y-65341963D01*
X59521310Y-65354901D01*
X59521310Y-65854915D01*
X59525402Y-65867859D01*
X59537674Y-65878765D01*
X59555805Y-65886156D01*
X59577363Y-65888621D01*
X59598854Y-65886148D01*
X59616931Y-65878729D01*
X59629244Y-65867774D01*
X59633356Y-65854732D01*
X59633356Y-65722145D01*
X59745403Y-65722145D01*
X59745403Y-65816923D01*
G37*
G36*
X60041373Y-65310025D02*
G01*
X60080558Y-65318420D01*
X60115308Y-65332333D01*
X60143169Y-65350687D01*
X60159161Y-65370577D01*
X60164523Y-65392747D01*
X60164523Y-65817070D01*
X60159162Y-65839241D01*
X60143171Y-65859144D01*
X60115308Y-65877520D01*
X60080562Y-65891412D01*
X60041377Y-65899795D01*
X59996484Y-65902689D01*
X59951988Y-65899808D01*
X59912867Y-65891436D01*
X59877904Y-65877520D01*
X59849854Y-65859130D01*
X59833772Y-65839229D01*
X59828384Y-65817070D01*
X59828384Y-65392747D01*
X59833773Y-65370589D01*
X59846459Y-65354901D01*
X59940430Y-65354901D01*
X59940430Y-65854915D01*
X59944523Y-65867859D01*
X59956795Y-65878765D01*
X59974926Y-65886156D01*
X59996484Y-65888621D01*
X60017979Y-65886156D01*
X60036051Y-65878765D01*
X60048371Y-65867856D01*
X60052477Y-65854915D01*
X60052477Y-65354901D01*
X60048369Y-65341966D01*
X60036051Y-65331087D01*
X60017975Y-65323668D01*
X59996484Y-65321196D01*
X59974931Y-65323668D01*
X59956795Y-65331087D01*
X59944525Y-65341963D01*
X59940430Y-65354901D01*
X59846459Y-65354901D01*
X59849856Y-65350700D01*
X59877904Y-65332333D01*
X59912871Y-65318395D01*
X59951992Y-65310012D01*
X59996484Y-65307127D01*
X60041373Y-65310025D01*
G37*
G36*
X60467337Y-65312366D02*
G01*
X60506522Y-65320749D01*
X60541268Y-65334641D01*
X60569134Y-65352971D01*
X60585123Y-65372824D01*
X60590483Y-65394945D01*
X60590483Y-65508261D01*
X60584438Y-65533553D01*
X60567021Y-65554315D01*
X60537476Y-65571690D01*
X60492786Y-65585967D01*
X60537601Y-65601127D01*
X60567174Y-65619022D01*
X60584511Y-65639937D01*
X60590483Y-65664919D01*
X60590483Y-65861217D01*
X60594510Y-65874464D01*
X60604850Y-65881450D01*
X60622540Y-65883931D01*
X60625287Y-65883931D01*
X60625287Y-65898000D01*
X60576805Y-65898000D01*
X60539940Y-65895289D01*
X60513582Y-65887986D01*
X60494946Y-65876436D01*
X60482942Y-65859773D01*
X60478436Y-65836121D01*
X60478436Y-65627000D01*
X60474325Y-65613996D01*
X60462011Y-65603076D01*
X60443926Y-65595658D01*
X60422383Y-65593184D01*
X60373900Y-65593184D01*
X60373900Y-65883931D01*
X60408766Y-65883931D01*
X60408766Y-65898000D01*
X60227049Y-65898000D01*
X60227049Y-65883931D01*
X60261854Y-65883931D01*
X60261854Y-65579116D01*
X60373900Y-65579116D01*
X60422383Y-65579116D01*
X60443930Y-65576650D01*
X60462011Y-65569261D01*
X60474328Y-65558347D01*
X60478436Y-65545374D01*
X60478436Y-65357282D01*
X60474326Y-65344316D01*
X60462011Y-65333432D01*
X60443926Y-65326014D01*
X60422383Y-65323540D01*
X60373900Y-65323540D01*
X60373900Y-65579116D01*
X60261854Y-65579116D01*
X60261854Y-65323540D01*
X60227049Y-65323540D01*
X60227049Y-65309472D01*
X60422444Y-65309472D01*
X60467337Y-65312366D01*
G37*
G36*
X60901096Y-65312381D02*
G01*
X60940280Y-65320810D01*
X60975043Y-65334788D01*
X61002892Y-65353235D01*
X61018891Y-65373235D01*
X61024258Y-65395531D01*
X61024258Y-65561054D01*
X61018891Y-65583351D01*
X61002892Y-65603350D01*
X60975043Y-65621797D01*
X60940279Y-65635774D01*
X60901076Y-65644203D01*
X60856158Y-65647113D01*
X60807676Y-65647113D01*
X60807676Y-65883931D01*
X60842541Y-65883931D01*
X60842541Y-65898000D01*
X60660825Y-65898000D01*
X60660825Y-65883931D01*
X60695629Y-65883931D01*
X60695629Y-65633045D01*
X60807676Y-65633045D01*
X60856158Y-65633045D01*
X60877691Y-65630555D01*
X60895786Y-65623080D01*
X60908099Y-65612090D01*
X60912212Y-65599010D01*
X60912212Y-65357576D01*
X60908099Y-65344496D01*
X60895786Y-65333505D01*
X60877691Y-65326030D01*
X60856158Y-65323540D01*
X60807676Y-65323540D01*
X60807676Y-65633045D01*
X60695629Y-65633045D01*
X60695629Y-65323540D01*
X60660825Y-65323540D01*
X60660825Y-65309472D01*
X60856219Y-65309472D01*
X60901096Y-65312381D01*
G37*
G36*
X61306551Y-65310025D02*
G01*
X61345736Y-65318420D01*
X61380486Y-65332333D01*
X61408347Y-65350687D01*
X61424339Y-65370577D01*
X61429701Y-65392747D01*
X61429701Y-65817070D01*
X61424340Y-65839241D01*
X61408349Y-65859144D01*
X61380486Y-65877520D01*
X61345740Y-65891412D01*
X61306555Y-65899795D01*
X61261662Y-65902689D01*
X61217166Y-65899808D01*
X61178045Y-65891436D01*
X61143082Y-65877520D01*
X61115032Y-65859130D01*
X61098950Y-65839229D01*
X61093562Y-65817070D01*
X61093562Y-65392747D01*
X61098951Y-65370589D01*
X61111637Y-65354901D01*
X61205608Y-65354901D01*
X61205608Y-65854915D01*
X61209701Y-65867859D01*
X61221973Y-65878765D01*
X61240104Y-65886156D01*
X61261662Y-65888621D01*
X61283157Y-65886156D01*
X61301229Y-65878765D01*
X61313549Y-65867856D01*
X61317655Y-65854915D01*
X61317655Y-65354901D01*
X61313547Y-65341966D01*
X61301229Y-65331087D01*
X61283153Y-65323668D01*
X61261662Y-65321196D01*
X61240109Y-65323668D01*
X61221973Y-65331087D01*
X61209703Y-65341963D01*
X61205608Y-65354901D01*
X61111637Y-65354901D01*
X61115034Y-65350700D01*
X61143082Y-65332333D01*
X61178049Y-65318395D01*
X61217170Y-65310012D01*
X61261662Y-65307127D01*
X61306551Y-65310025D01*
G37*
G36*
X61732515Y-65312366D02*
G01*
X61771700Y-65320749D01*
X61806446Y-65334641D01*
X61834312Y-65352971D01*
X61850301Y-65372824D01*
X61855661Y-65394945D01*
X61855661Y-65508261D01*
X61849616Y-65533553D01*
X61832199Y-65554315D01*
X61802654Y-65571690D01*
X61757964Y-65585967D01*
X61802779Y-65601127D01*
X61832352Y-65619022D01*
X61849688Y-65639937D01*
X61855661Y-65664919D01*
X61855661Y-65861217D01*
X61859687Y-65874464D01*
X61870028Y-65881450D01*
X61887718Y-65883931D01*
X61890465Y-65883931D01*
X61890465Y-65898000D01*
X61841983Y-65898000D01*
X61805118Y-65895289D01*
X61778760Y-65887986D01*
X61760124Y-65876436D01*
X61748120Y-65859773D01*
X61743614Y-65836121D01*
X61743614Y-65627000D01*
X61739503Y-65613996D01*
X61727189Y-65603076D01*
X61709104Y-65595658D01*
X61687561Y-65593184D01*
X61639078Y-65593184D01*
X61639078Y-65883931D01*
X61673944Y-65883931D01*
X61673944Y-65898000D01*
X61492227Y-65898000D01*
X61492227Y-65883931D01*
X61527032Y-65883931D01*
X61527032Y-65579116D01*
X61639078Y-65579116D01*
X61687561Y-65579116D01*
X61709108Y-65576650D01*
X61727189Y-65569261D01*
X61739506Y-65558347D01*
X61743614Y-65545374D01*
X61743614Y-65357282D01*
X61739504Y-65344316D01*
X61727189Y-65333432D01*
X61709104Y-65326014D01*
X61687561Y-65323540D01*
X61639078Y-65323540D01*
X61639078Y-65579116D01*
X61527032Y-65579116D01*
X61527032Y-65323540D01*
X61492227Y-65323540D01*
X61492227Y-65309472D01*
X61687622Y-65309472D01*
X61732515Y-65312366D01*
G37*
G36*
X62247732Y-65883931D02*
G01*
X62282597Y-65883931D01*
X62282597Y-65898000D01*
X62100881Y-65898000D01*
X62100881Y-65883931D01*
X62135685Y-65883931D01*
X62110406Y-65712766D01*
X62010022Y-65712766D01*
X61981995Y-65883931D01*
X62016861Y-65883931D01*
X62016861Y-65898000D01*
X61911653Y-65898000D01*
X61911653Y-65883931D01*
X61946458Y-65883931D01*
X61978177Y-65698697D01*
X62011366Y-65698697D01*
X62109063Y-65698697D01*
X62062595Y-65379374D01*
X62011366Y-65698697D01*
X61978177Y-65698697D01*
X62044827Y-65309472D01*
X62156873Y-65309472D01*
X62247732Y-65883931D01*
G37*
G36*
X62729378Y-65485327D02*
G01*
X62626247Y-65485327D01*
X62626247Y-65323540D01*
X62575689Y-65323540D01*
X62575689Y-65883931D01*
X62610493Y-65883931D01*
X62610493Y-65898000D01*
X62428777Y-65898000D01*
X62428777Y-65883931D01*
X62463642Y-65883931D01*
X62463642Y-65323540D01*
X62413084Y-65323540D01*
X62413084Y-65485327D01*
X62309952Y-65485327D01*
X62309952Y-65309472D01*
X62729378Y-65309472D01*
X62729378Y-65485327D01*
G37*
G36*
X63121816Y-65898000D02*
G01*
X62772060Y-65898000D01*
X62772060Y-65883931D01*
X62806864Y-65883931D01*
X62806864Y-65323540D01*
X62772060Y-65323540D01*
X62772060Y-65309472D01*
X63121816Y-65309472D01*
X63121816Y-65485327D01*
X63009769Y-65485327D01*
X63009769Y-65323540D01*
X62918911Y-65323540D01*
X62918911Y-65579116D01*
X63051474Y-65579116D01*
X63051474Y-65593184D01*
X62918911Y-65593184D01*
X62918911Y-65883931D01*
X63009769Y-65883931D01*
X63009769Y-65722145D01*
X63121816Y-65722145D01*
X63121816Y-65898000D01*
G37*
G36*
X63417782Y-65312374D02*
G01*
X63456967Y-65320780D01*
X63491721Y-65334714D01*
X63519582Y-65353114D01*
X63535574Y-65373041D01*
X63540936Y-65395238D01*
X63540936Y-65812234D01*
X63535574Y-65834431D01*
X63519582Y-65854358D01*
X63491721Y-65872757D01*
X63456967Y-65886692D01*
X63417782Y-65895098D01*
X63372897Y-65898000D01*
X63177503Y-65898000D01*
X63177503Y-65883931D01*
X63212308Y-65883931D01*
X63324354Y-65883931D01*
X63372836Y-65883931D01*
X63394379Y-65881457D01*
X63412465Y-65874039D01*
X63424781Y-65863125D01*
X63428890Y-65850152D01*
X63428890Y-65357319D01*
X63424781Y-65344346D01*
X63412465Y-65333432D01*
X63394379Y-65326014D01*
X63372836Y-65323540D01*
X63324354Y-65323540D01*
X63324354Y-65883931D01*
X63212308Y-65883931D01*
X63212308Y-65323540D01*
X63177503Y-65323540D01*
X63177503Y-65309472D01*
X63372897Y-65309472D01*
X63417782Y-65312374D01*
G37*
D11*
X69027255Y-49369819D02*
X69217731Y-49369819D01*
X69217731Y-49369819D02*
X69312969Y-49417438D01*
X69312969Y-49417438D02*
X69408207Y-49512676D01*
X69408207Y-49512676D02*
X69455826Y-49703152D01*
X69455826Y-49703152D02*
X69455826Y-50036485D01*
X69455826Y-50036485D02*
X69408207Y-50226961D01*
X69408207Y-50226961D02*
X69312969Y-50322200D01*
X69312969Y-50322200D02*
X69217731Y-50369819D01*
X69217731Y-50369819D02*
X69027255Y-50369819D01*
X69027255Y-50369819D02*
X68932017Y-50322200D01*
X68932017Y-50322200D02*
X68836779Y-50226961D01*
X68836779Y-50226961D02*
X68789160Y-50036485D01*
X68789160Y-50036485D02*
X68789160Y-49703152D01*
X68789160Y-49703152D02*
X68836779Y-49512676D01*
X68836779Y-49512676D02*
X68932017Y-49417438D01*
X68932017Y-49417438D02*
X69027255Y-49369819D01*
X69884398Y-49369819D02*
X69884398Y-50179342D01*
X69884398Y-50179342D02*
X69932017Y-50274580D01*
X69932017Y-50274580D02*
X69979636Y-50322200D01*
X69979636Y-50322200D02*
X70074874Y-50369819D01*
X70074874Y-50369819D02*
X70265350Y-50369819D01*
X70265350Y-50369819D02*
X70360588Y-50322200D01*
X70360588Y-50322200D02*
X70408207Y-50274580D01*
X70408207Y-50274580D02*
X70455826Y-50179342D01*
X70455826Y-50179342D02*
X70455826Y-49369819D01*
X70789160Y-49369819D02*
X71360588Y-49369819D01*
X71074874Y-50369819D02*
X71074874Y-49369819D01*
X71693922Y-50369819D02*
X71693922Y-49369819D01*
X71693922Y-49369819D02*
X72074874Y-49369819D01*
X72074874Y-49369819D02*
X72170112Y-49417438D01*
X72170112Y-49417438D02*
X72217731Y-49465057D01*
X72217731Y-49465057D02*
X72265350Y-49560295D01*
X72265350Y-49560295D02*
X72265350Y-49703152D01*
X72265350Y-49703152D02*
X72217731Y-49798390D01*
X72217731Y-49798390D02*
X72170112Y-49846009D01*
X72170112Y-49846009D02*
X72074874Y-49893628D01*
X72074874Y-49893628D02*
X71693922Y-49893628D01*
X72693922Y-49369819D02*
X72693922Y-50179342D01*
X72693922Y-50179342D02*
X72741541Y-50274580D01*
X72741541Y-50274580D02*
X72789160Y-50322200D01*
X72789160Y-50322200D02*
X72884398Y-50369819D01*
X72884398Y-50369819D02*
X73074874Y-50369819D01*
X73074874Y-50369819D02*
X73170112Y-50322200D01*
X73170112Y-50322200D02*
X73217731Y-50274580D01*
X73217731Y-50274580D02*
X73265350Y-50179342D01*
X73265350Y-50179342D02*
X73265350Y-49369819D01*
X73598684Y-49369819D02*
X74170112Y-49369819D01*
X73884398Y-50369819D02*
X73884398Y-49369819D01*
X75551065Y-50750771D02*
X75503446Y-50703152D01*
X75503446Y-50703152D02*
X75408208Y-50560295D01*
X75408208Y-50560295D02*
X75360589Y-50465057D01*
X75360589Y-50465057D02*
X75312970Y-50322200D01*
X75312970Y-50322200D02*
X75265351Y-50084104D01*
X75265351Y-50084104D02*
X75265351Y-49893628D01*
X75265351Y-49893628D02*
X75312970Y-49655533D01*
X75312970Y-49655533D02*
X75360589Y-49512676D01*
X75360589Y-49512676D02*
X75408208Y-49417438D01*
X75408208Y-49417438D02*
X75503446Y-49274580D01*
X75503446Y-49274580D02*
X75551065Y-49226961D01*
X76265351Y-49846009D02*
X76408208Y-49893628D01*
X76408208Y-49893628D02*
X76455827Y-49941247D01*
X76455827Y-49941247D02*
X76503446Y-50036485D01*
X76503446Y-50036485D02*
X76503446Y-50179342D01*
X76503446Y-50179342D02*
X76455827Y-50274580D01*
X76455827Y-50274580D02*
X76408208Y-50322200D01*
X76408208Y-50322200D02*
X76312970Y-50369819D01*
X76312970Y-50369819D02*
X75932018Y-50369819D01*
X75932018Y-50369819D02*
X75932018Y-49369819D01*
X75932018Y-49369819D02*
X76265351Y-49369819D01*
X76265351Y-49369819D02*
X76360589Y-49417438D01*
X76360589Y-49417438D02*
X76408208Y-49465057D01*
X76408208Y-49465057D02*
X76455827Y-49560295D01*
X76455827Y-49560295D02*
X76455827Y-49655533D01*
X76455827Y-49655533D02*
X76408208Y-49750771D01*
X76408208Y-49750771D02*
X76360589Y-49798390D01*
X76360589Y-49798390D02*
X76265351Y-49846009D01*
X76265351Y-49846009D02*
X75932018Y-49846009D01*
X76836780Y-50750771D02*
X76884399Y-50703152D01*
X76884399Y-50703152D02*
X76979637Y-50560295D01*
X76979637Y-50560295D02*
X77027256Y-50465057D01*
X77027256Y-50465057D02*
X77074875Y-50322200D01*
X77074875Y-50322200D02*
X77122494Y-50084104D01*
X77122494Y-50084104D02*
X77122494Y-49893628D01*
X77122494Y-49893628D02*
X77074875Y-49655533D01*
X77074875Y-49655533D02*
X77027256Y-49512676D01*
X77027256Y-49512676D02*
X76979637Y-49417438D01*
X76979637Y-49417438D02*
X76884399Y-49274580D01*
X76884399Y-49274580D02*
X76836780Y-49226961D01*
D10*
X59946741Y-25678609D02*
X60899122Y-25678609D01*
X59756265Y-26250038D02*
X60422931Y-24250038D01*
X60422931Y-24250038D02*
X61089598Y-26250038D01*
D11*
X44527255Y-49369819D02*
X44717731Y-49369819D01*
X44717731Y-49369819D02*
X44812969Y-49417438D01*
X44812969Y-49417438D02*
X44908207Y-49512676D01*
X44908207Y-49512676D02*
X44955826Y-49703152D01*
X44955826Y-49703152D02*
X44955826Y-50036485D01*
X44955826Y-50036485D02*
X44908207Y-50226961D01*
X44908207Y-50226961D02*
X44812969Y-50322200D01*
X44812969Y-50322200D02*
X44717731Y-50369819D01*
X44717731Y-50369819D02*
X44527255Y-50369819D01*
X44527255Y-50369819D02*
X44432017Y-50322200D01*
X44432017Y-50322200D02*
X44336779Y-50226961D01*
X44336779Y-50226961D02*
X44289160Y-50036485D01*
X44289160Y-50036485D02*
X44289160Y-49703152D01*
X44289160Y-49703152D02*
X44336779Y-49512676D01*
X44336779Y-49512676D02*
X44432017Y-49417438D01*
X44432017Y-49417438D02*
X44527255Y-49369819D01*
X45384398Y-49369819D02*
X45384398Y-50179342D01*
X45384398Y-50179342D02*
X45432017Y-50274580D01*
X45432017Y-50274580D02*
X45479636Y-50322200D01*
X45479636Y-50322200D02*
X45574874Y-50369819D01*
X45574874Y-50369819D02*
X45765350Y-50369819D01*
X45765350Y-50369819D02*
X45860588Y-50322200D01*
X45860588Y-50322200D02*
X45908207Y-50274580D01*
X45908207Y-50274580D02*
X45955826Y-50179342D01*
X45955826Y-50179342D02*
X45955826Y-49369819D01*
X46289160Y-49369819D02*
X46860588Y-49369819D01*
X46574874Y-50369819D02*
X46574874Y-49369819D01*
X47193922Y-50369819D02*
X47193922Y-49369819D01*
X47193922Y-49369819D02*
X47574874Y-49369819D01*
X47574874Y-49369819D02*
X47670112Y-49417438D01*
X47670112Y-49417438D02*
X47717731Y-49465057D01*
X47717731Y-49465057D02*
X47765350Y-49560295D01*
X47765350Y-49560295D02*
X47765350Y-49703152D01*
X47765350Y-49703152D02*
X47717731Y-49798390D01*
X47717731Y-49798390D02*
X47670112Y-49846009D01*
X47670112Y-49846009D02*
X47574874Y-49893628D01*
X47574874Y-49893628D02*
X47193922Y-49893628D01*
X48193922Y-49369819D02*
X48193922Y-50179342D01*
X48193922Y-50179342D02*
X48241541Y-50274580D01*
X48241541Y-50274580D02*
X48289160Y-50322200D01*
X48289160Y-50322200D02*
X48384398Y-50369819D01*
X48384398Y-50369819D02*
X48574874Y-50369819D01*
X48574874Y-50369819D02*
X48670112Y-50322200D01*
X48670112Y-50322200D02*
X48717731Y-50274580D01*
X48717731Y-50274580D02*
X48765350Y-50179342D01*
X48765350Y-50179342D02*
X48765350Y-49369819D01*
X49098684Y-49369819D02*
X49670112Y-49369819D01*
X49384398Y-50369819D02*
X49384398Y-49369819D01*
X51051065Y-50750771D02*
X51003446Y-50703152D01*
X51003446Y-50703152D02*
X50908208Y-50560295D01*
X50908208Y-50560295D02*
X50860589Y-50465057D01*
X50860589Y-50465057D02*
X50812970Y-50322200D01*
X50812970Y-50322200D02*
X50765351Y-50084104D01*
X50765351Y-50084104D02*
X50765351Y-49893628D01*
X50765351Y-49893628D02*
X50812970Y-49655533D01*
X50812970Y-49655533D02*
X50860589Y-49512676D01*
X50860589Y-49512676D02*
X50908208Y-49417438D01*
X50908208Y-49417438D02*
X51003446Y-49274580D01*
X51003446Y-49274580D02*
X51051065Y-49226961D01*
X51384399Y-50084104D02*
X51860589Y-50084104D01*
X51289161Y-50369819D02*
X51622494Y-49369819D01*
X51622494Y-49369819D02*
X51955827Y-50369819D01*
X52193923Y-50750771D02*
X52241542Y-50703152D01*
X52241542Y-50703152D02*
X52336780Y-50560295D01*
X52336780Y-50560295D02*
X52384399Y-50465057D01*
X52384399Y-50465057D02*
X52432018Y-50322200D01*
X52432018Y-50322200D02*
X52479637Y-50084104D01*
X52479637Y-50084104D02*
X52479637Y-49893628D01*
X52479637Y-49893628D02*
X52432018Y-49655533D01*
X52432018Y-49655533D02*
X52384399Y-49512676D01*
X52384399Y-49512676D02*
X52336780Y-49417438D01*
X52336780Y-49417438D02*
X52241542Y-49274580D01*
X52241542Y-49274580D02*
X52193923Y-49226961D01*
X44336779Y-29369819D02*
X44336779Y-28369819D01*
X44812969Y-29369819D02*
X44812969Y-28369819D01*
X44812969Y-28369819D02*
X45384397Y-29369819D01*
X45384397Y-29369819D02*
X45384397Y-28369819D01*
X45860588Y-29369819D02*
X45860588Y-28369819D01*
X45860588Y-28369819D02*
X46241540Y-28369819D01*
X46241540Y-28369819D02*
X46336778Y-28417438D01*
X46336778Y-28417438D02*
X46384397Y-28465057D01*
X46384397Y-28465057D02*
X46432016Y-28560295D01*
X46432016Y-28560295D02*
X46432016Y-28703152D01*
X46432016Y-28703152D02*
X46384397Y-28798390D01*
X46384397Y-28798390D02*
X46336778Y-28846009D01*
X46336778Y-28846009D02*
X46241540Y-28893628D01*
X46241540Y-28893628D02*
X45860588Y-28893628D01*
X46860588Y-28369819D02*
X46860588Y-29179342D01*
X46860588Y-29179342D02*
X46908207Y-29274580D01*
X46908207Y-29274580D02*
X46955826Y-29322200D01*
X46955826Y-29322200D02*
X47051064Y-29369819D01*
X47051064Y-29369819D02*
X47241540Y-29369819D01*
X47241540Y-29369819D02*
X47336778Y-29322200D01*
X47336778Y-29322200D02*
X47384397Y-29274580D01*
X47384397Y-29274580D02*
X47432016Y-29179342D01*
X47432016Y-29179342D02*
X47432016Y-28369819D01*
X47765350Y-28369819D02*
X48336778Y-28369819D01*
X48051064Y-29369819D02*
X48051064Y-28369819D01*
X49717731Y-29750771D02*
X49670112Y-29703152D01*
X49670112Y-29703152D02*
X49574874Y-29560295D01*
X49574874Y-29560295D02*
X49527255Y-29465057D01*
X49527255Y-29465057D02*
X49479636Y-29322200D01*
X49479636Y-29322200D02*
X49432017Y-29084104D01*
X49432017Y-29084104D02*
X49432017Y-28893628D01*
X49432017Y-28893628D02*
X49479636Y-28655533D01*
X49479636Y-28655533D02*
X49527255Y-28512676D01*
X49527255Y-28512676D02*
X49574874Y-28417438D01*
X49574874Y-28417438D02*
X49670112Y-28274580D01*
X49670112Y-28274580D02*
X49717731Y-28226961D01*
X50051065Y-29084104D02*
X50527255Y-29084104D01*
X49955827Y-29369819D02*
X50289160Y-28369819D01*
X50289160Y-28369819D02*
X50622493Y-29369819D01*
X50860589Y-29750771D02*
X50908208Y-29703152D01*
X50908208Y-29703152D02*
X51003446Y-29560295D01*
X51003446Y-29560295D02*
X51051065Y-29465057D01*
X51051065Y-29465057D02*
X51098684Y-29322200D01*
X51098684Y-29322200D02*
X51146303Y-29084104D01*
X51146303Y-29084104D02*
X51146303Y-28893628D01*
X51146303Y-28893628D02*
X51098684Y-28655533D01*
X51098684Y-28655533D02*
X51051065Y-28512676D01*
X51051065Y-28512676D02*
X51003446Y-28417438D01*
X51003446Y-28417438D02*
X50908208Y-28274580D01*
X50908208Y-28274580D02*
X50860589Y-28226961D01*
X68836779Y-29369819D02*
X68836779Y-28369819D01*
X69312969Y-29369819D02*
X69312969Y-28369819D01*
X69312969Y-28369819D02*
X69884397Y-29369819D01*
X69884397Y-29369819D02*
X69884397Y-28369819D01*
X70360588Y-29369819D02*
X70360588Y-28369819D01*
X70360588Y-28369819D02*
X70741540Y-28369819D01*
X70741540Y-28369819D02*
X70836778Y-28417438D01*
X70836778Y-28417438D02*
X70884397Y-28465057D01*
X70884397Y-28465057D02*
X70932016Y-28560295D01*
X70932016Y-28560295D02*
X70932016Y-28703152D01*
X70932016Y-28703152D02*
X70884397Y-28798390D01*
X70884397Y-28798390D02*
X70836778Y-28846009D01*
X70836778Y-28846009D02*
X70741540Y-28893628D01*
X70741540Y-28893628D02*
X70360588Y-28893628D01*
X71360588Y-28369819D02*
X71360588Y-29179342D01*
X71360588Y-29179342D02*
X71408207Y-29274580D01*
X71408207Y-29274580D02*
X71455826Y-29322200D01*
X71455826Y-29322200D02*
X71551064Y-29369819D01*
X71551064Y-29369819D02*
X71741540Y-29369819D01*
X71741540Y-29369819D02*
X71836778Y-29322200D01*
X71836778Y-29322200D02*
X71884397Y-29274580D01*
X71884397Y-29274580D02*
X71932016Y-29179342D01*
X71932016Y-29179342D02*
X71932016Y-28369819D01*
X72265350Y-28369819D02*
X72836778Y-28369819D01*
X72551064Y-29369819D02*
X72551064Y-28369819D01*
X74217731Y-29750771D02*
X74170112Y-29703152D01*
X74170112Y-29703152D02*
X74074874Y-29560295D01*
X74074874Y-29560295D02*
X74027255Y-29465057D01*
X74027255Y-29465057D02*
X73979636Y-29322200D01*
X73979636Y-29322200D02*
X73932017Y-29084104D01*
X73932017Y-29084104D02*
X73932017Y-28893628D01*
X73932017Y-28893628D02*
X73979636Y-28655533D01*
X73979636Y-28655533D02*
X74027255Y-28512676D01*
X74027255Y-28512676D02*
X74074874Y-28417438D01*
X74074874Y-28417438D02*
X74170112Y-28274580D01*
X74170112Y-28274580D02*
X74217731Y-28226961D01*
X74932017Y-28846009D02*
X75074874Y-28893628D01*
X75074874Y-28893628D02*
X75122493Y-28941247D01*
X75122493Y-28941247D02*
X75170112Y-29036485D01*
X75170112Y-29036485D02*
X75170112Y-29179342D01*
X75170112Y-29179342D02*
X75122493Y-29274580D01*
X75122493Y-29274580D02*
X75074874Y-29322200D01*
X75074874Y-29322200D02*
X74979636Y-29369819D01*
X74979636Y-29369819D02*
X74598684Y-29369819D01*
X74598684Y-29369819D02*
X74598684Y-28369819D01*
X74598684Y-28369819D02*
X74932017Y-28369819D01*
X74932017Y-28369819D02*
X75027255Y-28417438D01*
X75027255Y-28417438D02*
X75074874Y-28465057D01*
X75074874Y-28465057D02*
X75122493Y-28560295D01*
X75122493Y-28560295D02*
X75122493Y-28655533D01*
X75122493Y-28655533D02*
X75074874Y-28750771D01*
X75074874Y-28750771D02*
X75027255Y-28798390D01*
X75027255Y-28798390D02*
X74932017Y-28846009D01*
X74932017Y-28846009D02*
X74598684Y-28846009D01*
X75503446Y-29750771D02*
X75551065Y-29703152D01*
X75551065Y-29703152D02*
X75646303Y-29560295D01*
X75646303Y-29560295D02*
X75693922Y-29465057D01*
X75693922Y-29465057D02*
X75741541Y-29322200D01*
X75741541Y-29322200D02*
X75789160Y-29084104D01*
X75789160Y-29084104D02*
X75789160Y-28893628D01*
X75789160Y-28893628D02*
X75741541Y-28655533D01*
X75741541Y-28655533D02*
X75693922Y-28512676D01*
X75693922Y-28512676D02*
X75646303Y-28417438D01*
X75646303Y-28417438D02*
X75551065Y-28274580D01*
X75551065Y-28274580D02*
X75503446Y-28226961D01*
D12*
%TO.C,REF\u002A\u002A*%
X43040000Y-12200000D02*
X52960000Y-12200000D01*
X43040000Y-15945000D02*
X43040000Y-12200000D01*
X43040000Y-24420000D02*
X43040000Y-20675000D01*
X44804000Y-24420000D02*
X43040000Y-24420000D01*
X47304000Y-24420000D02*
X46196000Y-24420000D01*
X49804000Y-24420000D02*
X48696000Y-24420000D01*
X52960000Y-12200000D02*
X52960000Y-15945000D01*
X52960000Y-20675000D02*
X52960000Y-24420000D01*
X52960000Y-24420000D02*
X51196000Y-24420000D01*
D13*
X13526800Y-28101100D02*
X13526800Y-33562100D01*
X13526800Y-33562100D02*
X16473200Y-33562100D01*
X14365000Y-40293100D02*
X15635000Y-40293100D01*
X14365000Y-41055100D02*
X15635000Y-41055100D01*
X15000000Y-40039100D02*
X15000000Y-41309100D01*
X15000000Y-41055100D02*
X14365000Y-40293100D01*
X15000000Y-41055100D02*
X14492000Y-40293100D01*
X15000000Y-41055100D02*
X14619000Y-40293100D01*
X15000000Y-41055100D02*
X14746000Y-40293100D01*
X15000000Y-41055100D02*
X14873000Y-40293100D01*
X15000000Y-41055100D02*
X15127000Y-40293100D01*
X15000000Y-41055100D02*
X15254000Y-40293100D01*
X15000000Y-41055100D02*
X15381000Y-40293100D01*
X15000000Y-41055100D02*
X15508000Y-40293100D01*
X15000000Y-41055100D02*
X15635000Y-40293100D01*
X16473200Y-28101100D02*
X13526800Y-28101100D01*
X16473200Y-33562100D02*
X16473200Y-28101100D01*
X28569600Y-38717300D02*
X28569600Y-39006860D01*
X28569600Y-40993140D02*
X28569600Y-41282700D01*
X32430400Y-38717300D02*
X28569600Y-38717300D01*
X32430400Y-38717300D02*
X32430400Y-39186435D01*
X32430400Y-40813565D02*
X32430400Y-41282700D01*
X32430400Y-41282700D02*
X28569600Y-41282700D01*
X12878100Y-44317001D02*
X12878100Y-51683001D01*
X12878100Y-51683001D02*
X14412260Y-51683001D01*
X14595760Y-44317001D02*
X12878100Y-44317001D01*
X16347740Y-51683001D02*
X17135760Y-51683001D01*
X17135760Y-44317001D02*
X16164240Y-44317001D01*
X18704240Y-51683001D02*
X19675760Y-51683001D01*
X19675760Y-44317001D02*
X18704240Y-44317001D01*
X21244240Y-51683001D02*
X22215760Y-51683001D01*
X22215760Y-44317001D02*
X21244240Y-44317001D01*
X23784240Y-51683001D02*
X24755760Y-51683001D01*
X24755760Y-44317001D02*
X23784240Y-44317001D01*
X26324240Y-51683001D02*
X27295760Y-51683001D01*
X27295760Y-44317001D02*
X26324240Y-44317001D01*
X28864240Y-51683001D02*
X29835760Y-51683001D01*
X29835760Y-44317001D02*
X28864240Y-44317001D01*
X31404240Y-51683001D02*
X33121900Y-51683001D01*
X33121900Y-44317001D02*
X31404240Y-44317001D01*
X33121900Y-51683001D02*
X33121900Y-44317001D01*
D12*
X38540000Y-49500000D02*
X39310000Y-49500000D01*
X46620000Y-49500000D02*
X45850000Y-49500000D01*
X39310000Y-48130000D02*
X45850000Y-48130000D01*
X45850000Y-50870000D01*
X39310000Y-50870000D01*
X39310000Y-48130000D01*
D13*
X36717300Y-19069600D02*
X36717300Y-22930400D01*
X36717300Y-19069600D02*
X37186435Y-19069600D01*
X36717300Y-22930400D02*
X37006860Y-22930400D01*
X38813565Y-19069600D02*
X39282700Y-19069600D01*
X38993140Y-22930400D02*
X39282700Y-22930400D01*
X39282700Y-19069600D02*
X39282700Y-22930400D01*
D12*
X24710000Y-14455000D02*
X24710000Y-17545000D01*
X24710000Y-14455170D02*
G75*
G02*
X30260000Y-16000000I2560000J-1544830D01*
G01*
X30260000Y-16000000D02*
G75*
G02*
X24710000Y-17544830I-2990000J0D01*
G01*
X29770000Y-16000000D02*
G75*
G02*
X24770000Y-16000000I-2500000J0D01*
G01*
X24770000Y-16000000D02*
G75*
G02*
X29770000Y-16000000I2500000J0D01*
G01*
X65980000Y-51380000D02*
X65980000Y-57700000D01*
X65980000Y-51380000D02*
X79020000Y-51380000D01*
X65980000Y-60300000D02*
X65980000Y-66620000D01*
X65980000Y-66620000D02*
X79020000Y-66620000D01*
X79020000Y-51380000D02*
X79020000Y-66620000D01*
X68335847Y-64933500D02*
G75*
G02*
X71750000Y-51790001I4164153J5933500D01*
G01*
X73341090Y-51797176D02*
G75*
G02*
X70300000Y-65910000I-841090J-7202824D01*
G01*
D13*
X12269000Y1507799D02*
X12269000Y-22038000D01*
X12269000Y-22038000D02*
X23521200Y-22038000D01*
X23521200Y1507799D02*
X12269000Y1507799D01*
X23521200Y-22038000D02*
X23521200Y1507799D01*
D14*
X25680200Y-20581001D02*
G75*
G02*
X24918200Y-20581001I-381000J0D01*
G01*
X24918200Y-20581001D02*
G75*
G02*
X25680200Y-20581001I381000J0D01*
G01*
D13*
X56810727Y-23411597D02*
X56810727Y-24094857D01*
X56810727Y-26284337D02*
X56810727Y-26703296D01*
X56810727Y-28755898D02*
X56810727Y-29243296D01*
X56810727Y-31295898D02*
X56810727Y-31783296D01*
X56810727Y-33835898D02*
X56810727Y-34587597D01*
X56810727Y-34587597D02*
X63668727Y-34587597D01*
X63668727Y-23411597D02*
X56810727Y-23411597D01*
X63668727Y-24163296D02*
X63668727Y-23411597D01*
X63668727Y-26703296D02*
X63668727Y-26215898D01*
X63668727Y-29243296D02*
X63668727Y-28755898D01*
X63668727Y-31783296D02*
X63668727Y-31295898D01*
X63668727Y-34587597D02*
X63668727Y-33835898D01*
D12*
X41480000Y-51380000D02*
X41480000Y-57700000D01*
X41480000Y-51380000D02*
X54520000Y-51380000D01*
X41480000Y-60300000D02*
X41480000Y-66620000D01*
X41480000Y-66620000D02*
X54520000Y-66620000D01*
X54520000Y-51380000D02*
X54520000Y-66620000D01*
X43835847Y-64933500D02*
G75*
G02*
X47250000Y-51790001I4164153J5933500D01*
G01*
X48841090Y-51797176D02*
G75*
G02*
X45800000Y-65910000I-841090J-7202824D01*
G01*
X55687651Y-50685000D02*
X56487651Y-50685000D01*
X56087651Y-50285000D02*
X56087651Y-51085000D01*
X60097349Y-48920000D02*
X60097349Y-57080000D01*
X60137349Y-48920000D02*
X60137349Y-57080000D01*
X60177349Y-48921000D02*
X60177349Y-57079000D01*
X60217349Y-48922000D02*
X60217349Y-57078000D01*
X60257349Y-48923000D02*
X60257349Y-57077000D01*
X60297349Y-48925000D02*
X60297349Y-57075000D01*
X60337349Y-48927000D02*
X60337349Y-57073000D01*
X60377349Y-48930000D02*
X60377349Y-57070000D01*
X60417349Y-48932000D02*
X60417349Y-57068000D01*
X60457349Y-48936000D02*
X60457349Y-57064000D01*
X60497349Y-48939000D02*
X60497349Y-57061000D01*
X60537349Y-48944000D02*
X60537349Y-57056000D01*
X60577349Y-48948000D02*
X60577349Y-57052000D01*
X60617349Y-48953000D02*
X60617349Y-57047000D01*
X60657349Y-48958000D02*
X60657349Y-57042000D01*
X60697349Y-48964000D02*
X60697349Y-57036000D01*
X60737349Y-48970000D02*
X60737349Y-57030000D01*
X60777349Y-48977000D02*
X60777349Y-57023000D01*
X60817349Y-48983000D02*
X60817349Y-57017000D01*
X60857349Y-48991000D02*
X60857349Y-57009000D01*
X60897349Y-48998000D02*
X60897349Y-57002000D01*
X60937349Y-49007000D02*
X60937349Y-56993000D01*
X60977349Y-49015000D02*
X60977349Y-56985000D01*
X61017349Y-49024000D02*
X61017349Y-56976000D01*
X61057349Y-49033000D02*
X61057349Y-56967000D01*
X61097349Y-49043000D02*
X61097349Y-56957000D01*
X61137349Y-49053000D02*
X61137349Y-56947000D01*
X61177349Y-49064000D02*
X61177349Y-56936000D01*
X61217349Y-49075000D02*
X61217349Y-56925000D01*
X61257349Y-49087000D02*
X61257349Y-56913000D01*
X61297349Y-49099000D02*
X61297349Y-56901000D01*
X61337349Y-49111000D02*
X61337349Y-56889000D01*
X61377349Y-49124000D02*
X61377349Y-56876000D01*
X61417349Y-49137000D02*
X61417349Y-56863000D01*
X61457349Y-49151000D02*
X61457349Y-56849000D01*
X61497349Y-49165000D02*
X61497349Y-56835000D01*
X61537349Y-49180000D02*
X61537349Y-56820000D01*
X61577349Y-49195000D02*
X61577349Y-51960000D01*
X61577349Y-54040000D02*
X61577349Y-56805000D01*
X61617349Y-49211000D02*
X61617349Y-51960000D01*
X61617349Y-54040000D02*
X61617349Y-56789000D01*
X61657349Y-49227000D02*
X61657349Y-51960000D01*
X61657349Y-54040000D02*
X61657349Y-56773000D01*
X61697349Y-49243000D02*
X61697349Y-51960000D01*
X61697349Y-54040000D02*
X61697349Y-56757000D01*
X61737349Y-49260000D02*
X61737349Y-51960000D01*
X61737349Y-54040000D02*
X61737349Y-56740000D01*
X61777349Y-49278000D02*
X61777349Y-51960000D01*
X61777349Y-54040000D02*
X61777349Y-56722000D01*
X61817349Y-49296000D02*
X61817349Y-51960000D01*
X61817349Y-54040000D02*
X61817349Y-56704000D01*
X61857349Y-49315000D02*
X61857349Y-51960000D01*
X61857349Y-54040000D02*
X61857349Y-56685000D01*
X61897349Y-49334000D02*
X61897349Y-51960000D01*
X61897349Y-54040000D02*
X61897349Y-56666000D01*
X61937349Y-49354000D02*
X61937349Y-51960000D01*
X61937349Y-54040000D02*
X61937349Y-56646000D01*
X61977349Y-49374000D02*
X61977349Y-51960000D01*
X61977349Y-54040000D02*
X61977349Y-56626000D01*
X62017349Y-49395000D02*
X62017349Y-51960000D01*
X62017349Y-54040000D02*
X62017349Y-56605000D01*
X62057349Y-49416000D02*
X62057349Y-51960000D01*
X62057349Y-54040000D02*
X62057349Y-56584000D01*
X62097349Y-49438000D02*
X62097349Y-51960000D01*
X62097349Y-54040000D02*
X62097349Y-56562000D01*
X62137349Y-49461000D02*
X62137349Y-51960000D01*
X62137349Y-54040000D02*
X62137349Y-56539000D01*
X62177349Y-49484000D02*
X62177349Y-51960000D01*
X62177349Y-54040000D02*
X62177349Y-56516000D01*
X62217349Y-49507000D02*
X62217349Y-51960000D01*
X62217349Y-54040000D02*
X62217349Y-56493000D01*
X62257349Y-49532000D02*
X62257349Y-51960000D01*
X62257349Y-54040000D02*
X62257349Y-56468000D01*
X62297349Y-49557000D02*
X62297349Y-51960000D01*
X62297349Y-54040000D02*
X62297349Y-56443000D01*
X62337349Y-49582000D02*
X62337349Y-51960000D01*
X62337349Y-54040000D02*
X62337349Y-56418000D01*
X62377349Y-49608000D02*
X62377349Y-51960000D01*
X62377349Y-54040000D02*
X62377349Y-56392000D01*
X62417349Y-49635000D02*
X62417349Y-51960000D01*
X62417349Y-54040000D02*
X62417349Y-56365000D01*
X62457349Y-49663000D02*
X62457349Y-51960000D01*
X62457349Y-54040000D02*
X62457349Y-56337000D01*
X62497349Y-49691000D02*
X62497349Y-51960000D01*
X62497349Y-54040000D02*
X62497349Y-56309000D01*
X62537349Y-49720000D02*
X62537349Y-51960000D01*
X62537349Y-54040000D02*
X62537349Y-56280000D01*
X62577349Y-49750000D02*
X62577349Y-51960000D01*
X62577349Y-54040000D02*
X62577349Y-56250000D01*
X62617349Y-49781000D02*
X62617349Y-51960000D01*
X62617349Y-54040000D02*
X62617349Y-56219000D01*
X62657349Y-49812000D02*
X62657349Y-51960000D01*
X62657349Y-54040000D02*
X62657349Y-56188000D01*
X62697349Y-49844000D02*
X62697349Y-51960000D01*
X62697349Y-54040000D02*
X62697349Y-56156000D01*
X62737349Y-49877000D02*
X62737349Y-51960000D01*
X62737349Y-54040000D02*
X62737349Y-56123000D01*
X62777349Y-49911000D02*
X62777349Y-51960000D01*
X62777349Y-54040000D02*
X62777349Y-56089000D01*
X62817349Y-49945000D02*
X62817349Y-51960000D01*
X62817349Y-54040000D02*
X62817349Y-56055000D01*
X62857349Y-49981000D02*
X62857349Y-51960000D01*
X62857349Y-54040000D02*
X62857349Y-56019000D01*
X62897349Y-50018000D02*
X62897349Y-51960000D01*
X62897349Y-54040000D02*
X62897349Y-55982000D01*
X62937349Y-50055000D02*
X62937349Y-51960000D01*
X62937349Y-54040000D02*
X62937349Y-55945000D01*
X62977349Y-50094000D02*
X62977349Y-51960000D01*
X62977349Y-54040000D02*
X62977349Y-55906000D01*
X63017349Y-50133000D02*
X63017349Y-51960000D01*
X63017349Y-54040000D02*
X63017349Y-55867000D01*
X63057349Y-50174000D02*
X63057349Y-51960000D01*
X63057349Y-54040000D02*
X63057349Y-55826000D01*
X63097349Y-50216000D02*
X63097349Y-51960000D01*
X63097349Y-54040000D02*
X63097349Y-55784000D01*
X63137349Y-50259000D02*
X63137349Y-51960000D01*
X63137349Y-54040000D02*
X63137349Y-55741000D01*
X63177349Y-50304000D02*
X63177349Y-51960000D01*
X63177349Y-54040000D02*
X63177349Y-55696000D01*
X63217349Y-50349000D02*
X63217349Y-51960000D01*
X63217349Y-54040000D02*
X63217349Y-55651000D01*
X63257349Y-50396000D02*
X63257349Y-51960000D01*
X63257349Y-54040000D02*
X63257349Y-55604000D01*
X63297349Y-50445000D02*
X63297349Y-51960000D01*
X63297349Y-54040000D02*
X63297349Y-55555000D01*
X63337349Y-50495000D02*
X63337349Y-51960000D01*
X63337349Y-54040000D02*
X63337349Y-55505000D01*
X63377349Y-50547000D02*
X63377349Y-51960000D01*
X63377349Y-54040000D02*
X63377349Y-55453000D01*
X63417349Y-50600000D02*
X63417349Y-51960000D01*
X63417349Y-54040000D02*
X63417349Y-55400000D01*
X63457349Y-50656000D02*
X63457349Y-51960000D01*
X63457349Y-54040000D02*
X63457349Y-55344000D01*
X63497349Y-50713000D02*
X63497349Y-51960000D01*
X63497349Y-54040000D02*
X63497349Y-55287000D01*
X63537349Y-50773000D02*
X63537349Y-51960000D01*
X63537349Y-54040000D02*
X63537349Y-55227000D01*
X63577349Y-50835000D02*
X63577349Y-51960000D01*
X63577349Y-54040000D02*
X63577349Y-55165000D01*
X63617349Y-50899000D02*
X63617349Y-51960000D01*
X63617349Y-54040000D02*
X63617349Y-55101000D01*
X63657349Y-50966000D02*
X63657349Y-55034000D01*
X63697349Y-51036000D02*
X63697349Y-54964000D01*
X63737349Y-51110000D02*
X63737349Y-54890000D01*
X63777349Y-51187000D02*
X63777349Y-54813000D01*
X63817349Y-51269000D02*
X63817349Y-54731000D01*
X63857349Y-51356000D02*
X63857349Y-54644000D01*
X63897349Y-51448000D02*
X63897349Y-54552000D01*
X63937349Y-51547000D02*
X63937349Y-54453000D01*
X63977349Y-51654000D02*
X63977349Y-54346000D01*
X64017349Y-51772000D02*
X64017349Y-54228000D01*
X64057349Y-51903000D02*
X64057349Y-54097000D01*
X64097349Y-52053000D02*
X64097349Y-53947000D01*
X64137349Y-52232000D02*
X64137349Y-53768000D01*
X64177349Y-52467000D02*
X64177349Y-53533000D01*
X64217349Y-53000000D02*
G75*
G02*
X55977349Y-53000000I-4120000J0D01*
G01*
X55977349Y-53000000D02*
G75*
G02*
X64217349Y-53000000I4120000J0D01*
G01*
X65980000Y-30380000D02*
X65980000Y-36700000D01*
X65980000Y-30380000D02*
X79020000Y-30380000D01*
X65980000Y-39300000D02*
X65980000Y-45620000D01*
X65980000Y-45620000D02*
X79020000Y-45620000D01*
X79020000Y-30380000D02*
X79020000Y-45620000D01*
X68335847Y-43933500D02*
G75*
G02*
X71750000Y-30790001I4164153J5933500D01*
G01*
X73341090Y-30797176D02*
G75*
G02*
X70300000Y-44910000I-841090J-7202824D01*
G01*
D13*
X24569600Y-23217300D02*
X24569600Y-23506860D01*
X24569600Y-25493140D02*
X24569600Y-25782700D01*
X28430400Y-23217300D02*
X24569600Y-23217300D01*
X28430400Y-23217300D02*
X28430400Y-23686435D01*
X28430400Y-25313565D02*
X28430400Y-25782700D01*
X28430400Y-25782700D02*
X24569600Y-25782700D01*
D12*
X15460000Y-63500000D02*
X16230000Y-63500000D01*
X23540000Y-63500000D02*
X22770000Y-63500000D01*
X22770000Y-64870000D02*
X16230000Y-64870000D01*
X16230000Y-62130000D01*
X22770000Y-62130000D01*
X22770000Y-64870000D01*
X41480000Y-30380000D02*
X41480000Y-36700000D01*
X41480000Y-30380000D02*
X54520000Y-30380000D01*
X41480000Y-39300000D02*
X41480000Y-45620000D01*
X41480000Y-45620000D02*
X54520000Y-45620000D01*
X54520000Y-30380000D02*
X54520000Y-45620000D01*
X43835847Y-43933500D02*
G75*
G02*
X47250000Y-30790001I4164153J5933500D01*
G01*
X48841090Y-30797176D02*
G75*
G02*
X45800000Y-44910000I-841090J-7202824D01*
G01*
X55687651Y-41185000D02*
X56487651Y-41185000D01*
X56087651Y-40785000D02*
X56087651Y-41585000D01*
X60097349Y-39420000D02*
X60097349Y-47580000D01*
X60137349Y-39420000D02*
X60137349Y-47580000D01*
X60177349Y-39421000D02*
X60177349Y-47579000D01*
X60217349Y-39422000D02*
X60217349Y-47578000D01*
X60257349Y-39423000D02*
X60257349Y-47577000D01*
X60297349Y-39425000D02*
X60297349Y-47575000D01*
X60337349Y-39427000D02*
X60337349Y-47573000D01*
X60377349Y-39430000D02*
X60377349Y-47570000D01*
X60417349Y-39432000D02*
X60417349Y-47568000D01*
X60457349Y-39436000D02*
X60457349Y-47564000D01*
X60497349Y-39439000D02*
X60497349Y-47561000D01*
X60537349Y-39444000D02*
X60537349Y-47556000D01*
X60577349Y-39448000D02*
X60577349Y-47552000D01*
X60617349Y-39453000D02*
X60617349Y-47547000D01*
X60657349Y-39458000D02*
X60657349Y-47542000D01*
X60697349Y-39464000D02*
X60697349Y-47536000D01*
X60737349Y-39470000D02*
X60737349Y-47530000D01*
X60777349Y-39477000D02*
X60777349Y-47523000D01*
X60817349Y-39483000D02*
X60817349Y-47517000D01*
X60857349Y-39491000D02*
X60857349Y-47509000D01*
X60897349Y-39498000D02*
X60897349Y-47502000D01*
X60937349Y-39507000D02*
X60937349Y-47493000D01*
X60977349Y-39515000D02*
X60977349Y-47485000D01*
X61017349Y-39524000D02*
X61017349Y-47476000D01*
X61057349Y-39533000D02*
X61057349Y-47467000D01*
X61097349Y-39543000D02*
X61097349Y-47457000D01*
X61137349Y-39553000D02*
X61137349Y-47447000D01*
X61177349Y-39564000D02*
X61177349Y-47436000D01*
X61217349Y-39575000D02*
X61217349Y-47425000D01*
X61257349Y-39587000D02*
X61257349Y-47413000D01*
X61297349Y-39599000D02*
X61297349Y-47401000D01*
X61337349Y-39611000D02*
X61337349Y-47389000D01*
X61377349Y-39624000D02*
X61377349Y-47376000D01*
X61417349Y-39637000D02*
X61417349Y-47363000D01*
X61457349Y-39651000D02*
X61457349Y-47349000D01*
X61497349Y-39665000D02*
X61497349Y-47335000D01*
X61537349Y-39680000D02*
X61537349Y-47320000D01*
X61577349Y-39695000D02*
X61577349Y-42460000D01*
X61577349Y-44540000D02*
X61577349Y-47305000D01*
X61617349Y-39711000D02*
X61617349Y-42460000D01*
X61617349Y-44540000D02*
X61617349Y-47289000D01*
X61657349Y-39727000D02*
X61657349Y-42460000D01*
X61657349Y-44540000D02*
X61657349Y-47273000D01*
X61697349Y-39743000D02*
X61697349Y-42460000D01*
X61697349Y-44540000D02*
X61697349Y-47257000D01*
X61737349Y-39760000D02*
X61737349Y-42460000D01*
X61737349Y-44540000D02*
X61737349Y-47240000D01*
X61777349Y-39778000D02*
X61777349Y-42460000D01*
X61777349Y-44540000D02*
X61777349Y-47222000D01*
X61817349Y-39796000D02*
X61817349Y-42460000D01*
X61817349Y-44540000D02*
X61817349Y-47204000D01*
X61857349Y-39815000D02*
X61857349Y-42460000D01*
X61857349Y-44540000D02*
X61857349Y-47185000D01*
X61897349Y-39834000D02*
X61897349Y-42460000D01*
X61897349Y-44540000D02*
X61897349Y-47166000D01*
X61937349Y-39854000D02*
X61937349Y-42460000D01*
X61937349Y-44540000D02*
X61937349Y-47146000D01*
X61977349Y-39874000D02*
X61977349Y-42460000D01*
X61977349Y-44540000D02*
X61977349Y-47126000D01*
X62017349Y-39895000D02*
X62017349Y-42460000D01*
X62017349Y-44540000D02*
X62017349Y-47105000D01*
X62057349Y-39916000D02*
X62057349Y-42460000D01*
X62057349Y-44540000D02*
X62057349Y-47084000D01*
X62097349Y-39938000D02*
X62097349Y-42460000D01*
X62097349Y-44540000D02*
X62097349Y-47062000D01*
X62137349Y-39961000D02*
X62137349Y-42460000D01*
X62137349Y-44540000D02*
X62137349Y-47039000D01*
X62177349Y-39984000D02*
X62177349Y-42460000D01*
X62177349Y-44540000D02*
X62177349Y-47016000D01*
X62217349Y-40007000D02*
X62217349Y-42460000D01*
X62217349Y-44540000D02*
X62217349Y-46993000D01*
X62257349Y-40032000D02*
X62257349Y-42460000D01*
X62257349Y-44540000D02*
X62257349Y-46968000D01*
X62297349Y-40057000D02*
X62297349Y-42460000D01*
X62297349Y-44540000D02*
X62297349Y-46943000D01*
X62337349Y-40082000D02*
X62337349Y-42460000D01*
X62337349Y-44540000D02*
X62337349Y-46918000D01*
X62377349Y-40108000D02*
X62377349Y-42460000D01*
X62377349Y-44540000D02*
X62377349Y-46892000D01*
X62417349Y-40135000D02*
X62417349Y-42460000D01*
X62417349Y-44540000D02*
X62417349Y-46865000D01*
X62457349Y-40163000D02*
X62457349Y-42460000D01*
X62457349Y-44540000D02*
X62457349Y-46837000D01*
X62497349Y-40191000D02*
X62497349Y-42460000D01*
X62497349Y-44540000D02*
X62497349Y-46809000D01*
X62537349Y-40220000D02*
X62537349Y-42460000D01*
X62537349Y-44540000D02*
X62537349Y-46780000D01*
X62577349Y-40250000D02*
X62577349Y-42460000D01*
X62577349Y-44540000D02*
X62577349Y-46750000D01*
X62617349Y-40281000D02*
X62617349Y-42460000D01*
X62617349Y-44540000D02*
X62617349Y-46719000D01*
X62657349Y-40312000D02*
X62657349Y-42460000D01*
X62657349Y-44540000D02*
X62657349Y-46688000D01*
X62697349Y-40344000D02*
X62697349Y-42460000D01*
X62697349Y-44540000D02*
X62697349Y-46656000D01*
X62737349Y-40377000D02*
X62737349Y-42460000D01*
X62737349Y-44540000D02*
X62737349Y-46623000D01*
X62777349Y-40411000D02*
X62777349Y-42460000D01*
X62777349Y-44540000D02*
X62777349Y-46589000D01*
X62817349Y-40445000D02*
X62817349Y-42460000D01*
X62817349Y-44540000D02*
X62817349Y-46555000D01*
X62857349Y-40481000D02*
X62857349Y-42460000D01*
X62857349Y-44540000D02*
X62857349Y-46519000D01*
X62897349Y-40518000D02*
X62897349Y-42460000D01*
X62897349Y-44540000D02*
X62897349Y-46482000D01*
X62937349Y-40555000D02*
X62937349Y-42460000D01*
X62937349Y-44540000D02*
X62937349Y-46445000D01*
X62977349Y-40594000D02*
X62977349Y-42460000D01*
X62977349Y-44540000D02*
X62977349Y-46406000D01*
X63017349Y-40633000D02*
X63017349Y-42460000D01*
X63017349Y-44540000D02*
X63017349Y-46367000D01*
X63057349Y-40674000D02*
X63057349Y-42460000D01*
X63057349Y-44540000D02*
X63057349Y-46326000D01*
X63097349Y-40716000D02*
X63097349Y-42460000D01*
X63097349Y-44540000D02*
X63097349Y-46284000D01*
X63137349Y-40759000D02*
X63137349Y-42460000D01*
X63137349Y-44540000D02*
X63137349Y-46241000D01*
X63177349Y-40804000D02*
X63177349Y-42460000D01*
X63177349Y-44540000D02*
X63177349Y-46196000D01*
X63217349Y-40849000D02*
X63217349Y-42460000D01*
X63217349Y-44540000D02*
X63217349Y-46151000D01*
X63257349Y-40896000D02*
X63257349Y-42460000D01*
X63257349Y-44540000D02*
X63257349Y-46104000D01*
X63297349Y-40945000D02*
X63297349Y-42460000D01*
X63297349Y-44540000D02*
X63297349Y-46055000D01*
X63337349Y-40995000D02*
X63337349Y-42460000D01*
X63337349Y-44540000D02*
X63337349Y-46005000D01*
X63377349Y-41047000D02*
X63377349Y-42460000D01*
X63377349Y-44540000D02*
X63377349Y-45953000D01*
X63417349Y-41100000D02*
X63417349Y-42460000D01*
X63417349Y-44540000D02*
X63417349Y-45900000D01*
X63457349Y-41156000D02*
X63457349Y-42460000D01*
X63457349Y-44540000D02*
X63457349Y-45844000D01*
X63497349Y-41213000D02*
X63497349Y-42460000D01*
X63497349Y-44540000D02*
X63497349Y-45787000D01*
X63537349Y-41273000D02*
X63537349Y-42460000D01*
X63537349Y-44540000D02*
X63537349Y-45727000D01*
X63577349Y-41335000D02*
X63577349Y-42460000D01*
X63577349Y-44540000D02*
X63577349Y-45665000D01*
X63617349Y-41399000D02*
X63617349Y-42460000D01*
X63617349Y-44540000D02*
X63617349Y-45601000D01*
X63657349Y-41466000D02*
X63657349Y-45534000D01*
X63697349Y-41536000D02*
X63697349Y-45464000D01*
X63737349Y-41610000D02*
X63737349Y-45390000D01*
X63777349Y-41687000D02*
X63777349Y-45313000D01*
X63817349Y-41769000D02*
X63817349Y-45231000D01*
X63857349Y-41856000D02*
X63857349Y-45144000D01*
X63897349Y-41948000D02*
X63897349Y-45052000D01*
X63937349Y-42047000D02*
X63937349Y-44953000D01*
X63977349Y-42154000D02*
X63977349Y-44846000D01*
X64017349Y-42272000D02*
X64017349Y-44728000D01*
X64057349Y-42403000D02*
X64057349Y-44597000D01*
X64097349Y-42553000D02*
X64097349Y-44447000D01*
X64137349Y-42732000D02*
X64137349Y-44268000D01*
X64177349Y-42967000D02*
X64177349Y-44033000D01*
X64217349Y-43500000D02*
G75*
G02*
X55977349Y-43500000I-4120000J0D01*
G01*
X55977349Y-43500000D02*
G75*
G02*
X64217349Y-43500000I4120000J0D01*
G01*
X55590302Y-15685000D02*
X56390302Y-15685000D01*
X55990302Y-15285000D02*
X55990302Y-16085000D01*
X60000000Y-13920000D02*
X60000000Y-22080000D01*
X60040000Y-13920000D02*
X60040000Y-22080000D01*
X60080000Y-13921000D02*
X60080000Y-22079000D01*
X60120000Y-13922000D02*
X60120000Y-22078000D01*
X60160000Y-13923000D02*
X60160000Y-22077000D01*
X60200000Y-13925000D02*
X60200000Y-22075000D01*
X60240000Y-13927000D02*
X60240000Y-22073000D01*
X60280000Y-13930000D02*
X60280000Y-22070000D01*
X60320000Y-13932000D02*
X60320000Y-22068000D01*
X60360000Y-13936000D02*
X60360000Y-22064000D01*
X60400000Y-13939000D02*
X60400000Y-22061000D01*
X60440000Y-13944000D02*
X60440000Y-22056000D01*
X60480000Y-13948000D02*
X60480000Y-22052000D01*
X60520000Y-13953000D02*
X60520000Y-22047000D01*
X60560000Y-13958000D02*
X60560000Y-22042000D01*
X60600000Y-13964000D02*
X60600000Y-22036000D01*
X60640000Y-13970000D02*
X60640000Y-22030000D01*
X60680000Y-13977000D02*
X60680000Y-22023000D01*
X60720000Y-13983000D02*
X60720000Y-22017000D01*
X60760000Y-13991000D02*
X60760000Y-22009000D01*
X60800000Y-13998000D02*
X60800000Y-22002000D01*
X60840000Y-14007000D02*
X60840000Y-21993000D01*
X60880000Y-14015000D02*
X60880000Y-21985000D01*
X60920000Y-14024000D02*
X60920000Y-21976000D01*
X60960000Y-14033000D02*
X60960000Y-21967000D01*
X61000000Y-14043000D02*
X61000000Y-21957000D01*
X61040000Y-14053000D02*
X61040000Y-21947000D01*
X61080000Y-14064000D02*
X61080000Y-21936000D01*
X61120000Y-14075000D02*
X61120000Y-21925000D01*
X61160000Y-14087000D02*
X61160000Y-21913000D01*
X61200000Y-14099000D02*
X61200000Y-21901000D01*
X61240000Y-14111000D02*
X61240000Y-21889000D01*
X61280000Y-14124000D02*
X61280000Y-21876000D01*
X61320000Y-14137000D02*
X61320000Y-21863000D01*
X61360000Y-14151000D02*
X61360000Y-21849000D01*
X61400000Y-14165000D02*
X61400000Y-21835000D01*
X61440000Y-14180000D02*
X61440000Y-21820000D01*
X61480000Y-14195000D02*
X61480000Y-16960000D01*
X61480000Y-19040000D02*
X61480000Y-21805000D01*
X61520000Y-14211000D02*
X61520000Y-16960000D01*
X61520000Y-19040000D02*
X61520000Y-21789000D01*
X61560000Y-14227000D02*
X61560000Y-16960000D01*
X61560000Y-19040000D02*
X61560000Y-21773000D01*
X61600000Y-14243000D02*
X61600000Y-16960000D01*
X61600000Y-19040000D02*
X61600000Y-21757000D01*
X61640000Y-14260000D02*
X61640000Y-16960000D01*
X61640000Y-19040000D02*
X61640000Y-21740000D01*
X61680000Y-14278000D02*
X61680000Y-16960000D01*
X61680000Y-19040000D02*
X61680000Y-21722000D01*
X61720000Y-14296000D02*
X61720000Y-16960000D01*
X61720000Y-19040000D02*
X61720000Y-21704000D01*
X61760000Y-14315000D02*
X61760000Y-16960000D01*
X61760000Y-19040000D02*
X61760000Y-21685000D01*
X61800000Y-14334000D02*
X61800000Y-16960000D01*
X61800000Y-19040000D02*
X61800000Y-21666000D01*
X61840000Y-14354000D02*
X61840000Y-16960000D01*
X61840000Y-19040000D02*
X61840000Y-21646000D01*
X61880000Y-14374000D02*
X61880000Y-16960000D01*
X61880000Y-19040000D02*
X61880000Y-21626000D01*
X61920000Y-14395000D02*
X61920000Y-16960000D01*
X61920000Y-19040000D02*
X61920000Y-21605000D01*
X61960000Y-14416000D02*
X61960000Y-16960000D01*
X61960000Y-19040000D02*
X61960000Y-21584000D01*
X62000000Y-14438000D02*
X62000000Y-16960000D01*
X62000000Y-19040000D02*
X62000000Y-21562000D01*
X62040000Y-14461000D02*
X62040000Y-16960000D01*
X62040000Y-19040000D02*
X62040000Y-21539000D01*
X62080000Y-14484000D02*
X62080000Y-16960000D01*
X62080000Y-19040000D02*
X62080000Y-21516000D01*
X62120000Y-14507000D02*
X62120000Y-16960000D01*
X62120000Y-19040000D02*
X62120000Y-21493000D01*
X62160000Y-14532000D02*
X62160000Y-16960000D01*
X62160000Y-19040000D02*
X62160000Y-21468000D01*
X62200000Y-14557000D02*
X62200000Y-16960000D01*
X62200000Y-19040000D02*
X62200000Y-21443000D01*
X62240000Y-14582000D02*
X62240000Y-16960000D01*
X62240000Y-19040000D02*
X62240000Y-21418000D01*
X62280000Y-14608000D02*
X62280000Y-16960000D01*
X62280000Y-19040000D02*
X62280000Y-21392000D01*
X62320000Y-14635000D02*
X62320000Y-16960000D01*
X62320000Y-19040000D02*
X62320000Y-21365000D01*
X62360000Y-14663000D02*
X62360000Y-16960000D01*
X62360000Y-19040000D02*
X62360000Y-21337000D01*
X62400000Y-14691000D02*
X62400000Y-16960000D01*
X62400000Y-19040000D02*
X62400000Y-21309000D01*
X62440000Y-14720000D02*
X62440000Y-16960000D01*
X62440000Y-19040000D02*
X62440000Y-21280000D01*
X62480000Y-14750000D02*
X62480000Y-16960000D01*
X62480000Y-19040000D02*
X62480000Y-21250000D01*
X62520000Y-14781000D02*
X62520000Y-16960000D01*
X62520000Y-19040000D02*
X62520000Y-21219000D01*
X62560000Y-14812000D02*
X62560000Y-16960000D01*
X62560000Y-19040000D02*
X62560000Y-21188000D01*
X62600000Y-14844000D02*
X62600000Y-16960000D01*
X62600000Y-19040000D02*
X62600000Y-21156000D01*
X62640000Y-14877000D02*
X62640000Y-16960000D01*
X62640000Y-19040000D02*
X62640000Y-21123000D01*
X62680000Y-14911000D02*
X62680000Y-16960000D01*
X62680000Y-19040000D02*
X62680000Y-21089000D01*
X62720000Y-14945000D02*
X62720000Y-16960000D01*
X62720000Y-19040000D02*
X62720000Y-21055000D01*
X62760000Y-14981000D02*
X62760000Y-16960000D01*
X62760000Y-19040000D02*
X62760000Y-21019000D01*
X62800000Y-15018000D02*
X62800000Y-16960000D01*
X62800000Y-19040000D02*
X62800000Y-20982000D01*
X62840000Y-15055000D02*
X62840000Y-16960000D01*
X62840000Y-19040000D02*
X62840000Y-20945000D01*
X62880000Y-15094000D02*
X62880000Y-16960000D01*
X62880000Y-19040000D02*
X62880000Y-20906000D01*
X62920000Y-15133000D02*
X62920000Y-16960000D01*
X62920000Y-19040000D02*
X62920000Y-20867000D01*
X62960000Y-15174000D02*
X62960000Y-16960000D01*
X62960000Y-19040000D02*
X62960000Y-20826000D01*
X63000000Y-15216000D02*
X63000000Y-16960000D01*
X63000000Y-19040000D02*
X63000000Y-20784000D01*
X63040000Y-15259000D02*
X63040000Y-16960000D01*
X63040000Y-19040000D02*
X63040000Y-20741000D01*
X63080000Y-15304000D02*
X63080000Y-16960000D01*
X63080000Y-19040000D02*
X63080000Y-20696000D01*
X63120000Y-15349000D02*
X63120000Y-16960000D01*
X63120000Y-19040000D02*
X63120000Y-20651000D01*
X63160000Y-15396000D02*
X63160000Y-16960000D01*
X63160000Y-19040000D02*
X63160000Y-20604000D01*
X63200000Y-15445000D02*
X63200000Y-16960000D01*
X63200000Y-19040000D02*
X63200000Y-20555000D01*
X63240000Y-15495000D02*
X63240000Y-16960000D01*
X63240000Y-19040000D02*
X63240000Y-20505000D01*
X63280000Y-15547000D02*
X63280000Y-16960000D01*
X63280000Y-19040000D02*
X63280000Y-20453000D01*
X63320000Y-15600000D02*
X63320000Y-16960000D01*
X63320000Y-19040000D02*
X63320000Y-20400000D01*
X63360000Y-15656000D02*
X63360000Y-16960000D01*
X63360000Y-19040000D02*
X63360000Y-20344000D01*
X63400000Y-15713000D02*
X63400000Y-16960000D01*
X63400000Y-19040000D02*
X63400000Y-20287000D01*
X63440000Y-15773000D02*
X63440000Y-16960000D01*
X63440000Y-19040000D02*
X63440000Y-20227000D01*
X63480000Y-15835000D02*
X63480000Y-16960000D01*
X63480000Y-19040000D02*
X63480000Y-20165000D01*
X63520000Y-15899000D02*
X63520000Y-16960000D01*
X63520000Y-19040000D02*
X63520000Y-20101000D01*
X63560000Y-15966000D02*
X63560000Y-20034000D01*
X63600000Y-16036000D02*
X63600000Y-19964000D01*
X63640000Y-16110000D02*
X63640000Y-19890000D01*
X63680000Y-16187000D02*
X63680000Y-19813000D01*
X63720000Y-16269000D02*
X63720000Y-19731000D01*
X63760000Y-16356000D02*
X63760000Y-19644000D01*
X63800000Y-16448000D02*
X63800000Y-19552000D01*
X63840000Y-16547000D02*
X63840000Y-19453000D01*
X63880000Y-16654000D02*
X63880000Y-19346000D01*
X63920000Y-16772000D02*
X63920000Y-19228000D01*
X63960000Y-16903000D02*
X63960000Y-19097000D01*
X64000000Y-17053000D02*
X64000000Y-18947000D01*
X64040000Y-17232000D02*
X64040000Y-18768000D01*
X64080000Y-17467000D02*
X64080000Y-18533000D01*
X64120000Y-18000000D02*
G75*
G02*
X55880000Y-18000000I-4120000J0D01*
G01*
X55880000Y-18000000D02*
G75*
G02*
X64120000Y-18000000I4120000J0D01*
G01*
D13*
X29189500Y-26460000D02*
X29189500Y-31540000D01*
X29189500Y-31540000D02*
X39730500Y-31540000D01*
X29316500Y-27730000D02*
X39603500Y-27730000D01*
X39730500Y-26460000D02*
X29189500Y-26460000D01*
X39730500Y-31540000D02*
X39730500Y-26460000D01*
X27538500Y-29000000D02*
G75*
G02*
X27284500Y-29000000I-127000J0D01*
G01*
X27284500Y-29000000D02*
G75*
G02*
X27538500Y-29000000I127000J0D01*
G01*
D12*
X32500000Y-15460000D02*
X32500000Y-16230000D01*
X32500000Y-23540000D02*
X32500000Y-22770000D01*
X33870000Y-16230000D02*
X31130000Y-16230000D01*
X31130000Y-22770000D01*
X33870000Y-22770000D01*
X33870000Y-16230000D01*
D13*
X16217300Y-59430400D02*
X16217300Y-55569600D01*
X16506860Y-55569600D02*
X16217300Y-55569600D01*
X16686435Y-59430400D02*
X16217300Y-59430400D01*
X18782700Y-55569600D02*
X18493140Y-55569600D01*
X18782700Y-59430400D02*
X18313565Y-59430400D01*
X18782700Y-59430400D02*
X18782700Y-55569600D01*
D12*
X67540000Y-12200000D02*
X77460000Y-12200000D01*
X67540000Y-15945000D02*
X67540000Y-12200000D01*
X67540000Y-24420000D02*
X67540000Y-20675000D01*
X69304000Y-24420000D02*
X67540000Y-24420000D01*
X71804000Y-24420000D02*
X70696000Y-24420000D01*
X74304000Y-24420000D02*
X73196000Y-24420000D01*
X77460000Y-12200000D02*
X77460000Y-15945000D01*
X77460000Y-20675000D02*
X77460000Y-24420000D01*
X77460000Y-24420000D02*
X75696000Y-24420000D01*
D13*
X22365000Y-38634100D02*
X23635000Y-38634100D01*
X23000000Y-39269100D02*
X23000000Y-37999100D01*
X28372100Y-32500000D02*
G75*
G02*
X17627900Y-32500000I-5372100J0D01*
G01*
X17627900Y-32500000D02*
G75*
G02*
X28372100Y-32500000I5372100J0D01*
G01*
D12*
X29540000Y-57000000D02*
X30310000Y-57000000D01*
X37620000Y-57000000D02*
X36850000Y-57000000D01*
X30310000Y-55630000D02*
X36850000Y-55630000D01*
X36850000Y-58370000D01*
X30310000Y-58370000D01*
X30310000Y-55630000D01*
X38000000Y-37380000D02*
X38000000Y-38150000D01*
X38000000Y-45460000D02*
X38000000Y-44690000D01*
X36630000Y-44690000D02*
X39370000Y-44690000D01*
X39370000Y-38150000D01*
X36630000Y-38150000D01*
X36630000Y-44690000D01*
%TD*%
M02*
